<?xml version="1.0" encoding="UTF-8" standalone="no"?>
<svg width="80"
  height="80"
  viewBox="0 0 80 80"
  fill="none"
  xmlns="http://www.w3.org/2000/svg">
<rect width="80"
  height="80"
  fill="white" />
  <path d="M60.7196 47.752H60.1663C58.1256 47.752 56.4713 49.4059 56.4713 51.4467V54.4714C56.4713 56.5116 58.1256 58.1662 60.1663 58.1662H60.7196C62.7602 58.1662 64.4143 56.5116 64.4143 54.4714V51.4467C64.4143 49.4059 62.7602 47.752 60.7196 47.752Z"
    fill="#F5F5F5" />
  <path d="M47.0244 47.752H46.4711C44.4306 47.752 42.7764 49.4059 42.7764 51.4467V54.4714C42.7764 56.5116 44.4306 58.1662 46.4711 58.1662H47.0244C49.0649 58.1662 50.7197 56.5116 50.7197 54.4714V51.4467C50.7197 49.4059 49.0649 47.752 47.0244 47.752Z"
    fill="#F5F5F5" />
  <path d="M33.3295 47.752H32.7762C30.7355 47.752 29.0812 49.4059 29.0812 51.4467V54.4714C29.0812 56.5116 30.7355 58.1662 32.7762 58.1662H33.3295C35.3702 58.1662 37.0246 56.5116 37.0246 54.4714V51.4467C37.0246 49.4059 35.3702 47.752 33.3295 47.752Z"
    fill="#F5F5F5" />
  <path d="M19.6344 47.752H19.0813C17.0404 47.752 15.3864 49.4059 15.3864 51.4467V54.4714C15.3864 56.5116 17.0404 58.1662 19.0813 58.1662H19.6344C21.6752 58.1662 23.3292 56.5116 23.3292 54.4714V51.4467C23.3292 49.4059 21.6752 47.752 19.6344 47.752Z"
    fill="#F5F5F5" />
  <path d="M60.7196 34.0488H60.1663C58.1256 34.0488 56.4713 35.7028 56.4713 37.7437V40.7683C56.4713 42.8088 58.1256 44.4633 60.1663 44.4633H60.7196C62.7602 44.4633 64.4143 42.8088 64.4143 40.7683V37.7437C64.4143 35.7029 62.7602 34.0488 60.7196 34.0488Z"
    fill="#F5F5F5" />
  <path d="M47.0244 34.0488H46.4711C44.4306 34.0488 42.7764 35.7028 42.7764 37.7437V40.7683C42.7764 42.8088 44.4306 44.4633 46.4711 44.4633H47.0244C49.0649 44.4633 50.7197 42.8088 50.7197 40.7683V37.7437C50.7197 35.7029 49.0649 34.0488 47.0244 34.0488Z"
    fill="#F5F5F5" />
  <path d="M75.4127 14.5898H4.87882C2.88843 14.5898 1.27499 16.2443 1.27499 18.285V18.8427C1.27499 20.8834 2.88843 22.5377 4.87882 22.5377H75.4127C77.4033 22.5377 79.0166 20.8834 79.0166 18.8427V18.285C79.0166 16.2443 77.4034 14.5898 75.4127 14.5898Z"
    fill="#DFE3F1" />
  <path d="M75.4127 64.1953H4.87882C2.88843 64.1953 1.27499 65.8494 1.27499 67.8903V68.4482C1.27499 70.4887 2.88843 72.1433 4.87882 72.1433H75.4127C77.4033 72.1433 79.0166 70.4887 79.0166 68.4482V67.8903C79.0166 65.8494 77.4034 64.1953 75.4127 64.1953Z"
    fill="#F3DFEC" />
  <path d="M5.42281 14.5898H4.86953C2.82882 14.5898 1.17468 16.2443 1.17468 18.285V68.4483C1.17468 70.4888 2.82882 72.1434 4.86953 72.1434H5.42281C7.46351 72.1434 9.11765 70.4888 9.11765 68.4483V18.285C9.11773 16.2443 7.46351 14.5898 5.42281 14.5898ZM75.3216 14.5898H74.7684C72.7278 14.5898 71.0734 16.2443 71.0734 18.285V68.4483C71.0734 70.4888 72.7278 72.1434 74.7684 72.1434H75.3216C77.3624 72.1434 79.0166 70.4888 79.0166 68.4483V18.285C79.0166 16.2443 77.3624 14.5898 75.3216 14.5898Z"
    fill="#FCEAD4" />
  <path d="M33.3295 34.0488H32.7762C30.7355 34.0488 29.0812 35.7028 29.0812 37.7437V40.7683C29.0812 42.8088 30.7355 44.4633 32.7762 44.4633H33.3295C35.3702 44.4633 37.0246 42.8088 37.0246 40.7683V37.7437C37.0246 35.7029 35.3702 34.0488 33.3295 34.0488Z"
    fill="#E5594F" />
  <path d="M23.3785 7.18164H22.7977C20.7566 7.18164 19.1027 8.7432 19.1027 10.6698V24.3946C19.1027 26.3209 20.7566 27.8828 22.7977 27.8828H23.3785C25.4195 27.8828 27.0735 26.3209 27.0735 24.3946V10.6698C27.0735 8.7432 25.4195 7.18164 23.3785 7.18164ZM56.2466 7.18164H55.6655C53.625 7.18164 51.9708 8.7432 51.9708 10.6698V24.3946C51.9708 26.3209 53.625 27.8828 55.6655 27.8828H56.2466C58.2874 27.8828 59.9416 26.3209 59.9416 24.3946V10.6698C59.9416 8.7432 58.2874 7.18164 56.2466 7.18164Z"
    fill="#DFE3F1" />
</svg>
