<?xml version="1.0" encoding="UTF-8" standalone="no"?>
<svg width="80"
  height="80"
  viewBox="0 0 80 80"
  fill="none"
  xmlns="http://www.w3.org/2000/svg">
  <g clip-path="url(#clip0_135_600)">
    <g filter="url(#filter0_d_135_600)">
      <path d="M56.6979 22.0399C56.4252 22.0399 56.4621 22.3659 56.4621 22.9808C56.4621 23.5958 56.4252 23.9402 56.7512 23.9402C57.0771 23.9402 77.7099 23.9033 77.9272 23.8869C78.1445 23.8685 78.0891 23.0731 78.0891 22.7656C78.0891 22.3864 78.1424 22.0604 77.837 22.042C77.5295 22.0235 56.8065 22.0399 56.6979 22.0399Z"
        fill="#ED6D30" />
      <path d="M56.7676 17.0266L56.7881 22.0572L77.7263 22.0367L77.7734 16.8913L77.3122 16.3747L56.9357 16.3398L56.7676 17.0266Z"
        fill="#F78A51" />
      <path d="M57.196 16.6675L56.7676 17.0262L56.7655 17.8237C56.7655 17.8237 56.9049 17.9221 57.0443 17.8524C57.1837 17.7827 57.3784 17.6474 57.5506 17.633C57.8253 17.6125 57.8028 17.8749 58.0672 17.8749C58.3317 17.8749 58.5715 17.6105 58.795 17.6105C59.0184 17.6105 59.1209 17.8934 59.3587 17.879C59.5965 17.8647 59.7297 17.6248 60.027 17.633C60.2648 17.6392 60.3058 17.879 60.5989 17.879C60.8921 17.879 61.0417 17.6002 61.2918 17.6002C61.5419 17.6002 61.6239 17.8954 61.9027 17.8954C62.1815 17.8954 62.2573 17.6002 62.5771 17.6002C62.8969 17.6002 62.8703 17.879 63.1347 17.8503C63.3991 17.8216 63.4258 17.592 63.7456 17.5777C64.0654 17.5633 64.0982 17.879 64.377 17.879C64.6558 17.879 64.6476 17.6515 64.8854 17.6515C65.1232 17.6515 69.5346 17.6412 69.7027 17.6412C69.8708 17.6412 70.1291 17.9364 70.4079 17.9364C70.6867 17.9364 70.6088 17.6207 70.9143 17.6125C71.0967 17.6084 71.4514 17.9159 71.6604 17.9159C71.8695 17.9159 71.9454 17.6002 72.1811 17.5859C72.4169 17.5715 72.7674 17.9344 73.0462 17.9057C73.325 17.877 73.1856 17.5982 73.3947 17.5715C73.6038 17.5428 74.022 17.879 74.3008 17.8913C74.5796 17.9057 74.3992 17.5285 74.6903 17.5285C74.9814 17.5285 75.2069 17.8483 75.5123 17.8626C75.8177 17.877 75.6107 17.5428 75.9161 17.5141C76.2216 17.4854 76.445 17.9323 76.7382 17.9036C77.0313 17.8749 76.9063 17.5551 77.1564 17.5408C77.4065 17.5264 77.755 17.7499 77.755 17.7499L77.7673 16.8848L65.7217 13.0801L57.196 16.6675Z"
        fill="#ED6D30" />
      <path d="M64.8218 23.916C64.8218 23.916 64.8731 17.8768 64.8649 17.7292C64.8546 17.5509 65.0125 17.5078 65.1396 17.5078H69.6085C69.7356 17.5078 69.8094 17.6021 69.8196 17.719C69.8299 17.8358 69.7991 23.9057 69.7991 23.9057L64.8218 23.916Z"
        fill="#51362F" />
      <path d="M55.921 14.1325C55.921 14.1325 55.0764 16 55.0846 16.1415C55.0928 16.2829 55.3285 17.1419 55.7057 17.1644C56.2223 17.1952 56.3166 16.7421 56.4027 16.7421C56.4888 16.7421 56.6036 17.1849 56.8988 17.228C57.2432 17.2772 57.4912 16.7237 57.6245 16.7237C57.7577 16.7237 57.8233 17.2054 58.1349 17.2054C58.4465 17.2054 58.7786 16.6847 58.9016 16.695C59.0246 16.7052 59.1435 17.2485 59.3977 17.2485C59.6539 17.2485 59.904 16.7852 60.1254 16.7626C60.2402 16.7524 60.3489 17.2813 60.558 17.2895C60.7671 17.2997 61.1237 16.7421 61.3041 16.7421C61.4845 16.7421 61.626 17.3182 61.9007 17.2915C62.1754 17.2649 62.5464 16.7524 62.6776 16.7524C62.8088 16.7524 62.9523 17.271 63.1675 17.2813C63.3623 17.2895 63.6841 16.7934 63.8153 16.7852C63.9465 16.777 64.1044 17.2915 64.3217 17.2915C64.539 17.2915 64.7747 16.7339 64.9551 16.7237C65.1355 16.7134 65.2114 17.2485 65.4286 17.2485C65.6459 17.2485 65.9678 16.7093 66.1666 16.7011C66.3655 16.6909 66.4741 17.2177 66.673 17.2177C66.8718 17.2177 67.0932 16.6827 67.2347 16.6765C67.454 16.6683 67.5934 17.1972 67.8968 17.2075C68.2002 17.2177 68.3232 16.697 68.5589 16.697C68.7947 16.697 68.8623 17.189 69.1268 17.1993C69.3912 17.2095 69.6085 16.6888 69.8073 16.697C70.0062 16.7073 70.1374 17.1788 70.3567 17.1788C70.5761 17.1788 70.7913 16.697 70.9533 16.7052C71.1132 16.7155 71.3325 17.1972 71.5498 17.1972C71.7671 17.1972 71.9475 16.6991 72.052 16.695C72.2529 16.6888 72.4579 17.2157 72.667 17.1972C72.8761 17.1788 73.118 16.6601 73.2984 16.6683C73.4788 16.6786 73.7555 17.2567 73.9728 17.2382C74.1901 17.2198 74.3746 16.6704 74.5735 16.6786C74.7723 16.6868 74.9322 17.1849 75.1844 17.1849C75.416 17.1849 75.5452 16.7093 75.7542 16.6991C75.9633 16.6888 76.1581 17.1542 76.3754 17.1316C76.5927 17.1091 76.6808 16.6765 76.8715 16.6683C77.0601 16.6581 77.3389 17.1583 77.6136 17.148C77.8882 17.1378 78.0297 16.7503 78.1814 16.7421C78.3331 16.7339 78.4643 17.1644 78.8333 17.1583C79.1654 17.1542 79.6 16.533 79.5139 16.0984C79.4278 15.6638 78.247 13.9316 78.247 13.9316L55.921 14.1325Z"
        fill="#6C4D43" />
      <path d="M57.7106 9.1853C57.7106 9.1853 56.6097 10.731 55.9558 12.1434C55.3019 13.5558 55.0497 14.3922 55.0087 15.2163C54.9677 16.0219 55.0846 16.1449 55.0846 16.1449L56.2797 14.8391C56.2797 14.8391 56.292 16.0731 56.3801 16.0854C56.4683 16.0977 57.3887 14.8124 57.4502 14.8001C57.5138 14.7878 57.5138 16.0977 57.6019 16.0977C57.6901 16.0977 58.6351 14.7755 58.6986 14.7755C58.7622 14.7755 58.7868 16.0854 58.8626 16.0854C58.9385 16.0854 59.7954 14.7509 59.8589 14.7632C59.9225 14.7755 60.1479 16.1613 60.2238 16.1613C60.2996 16.1613 61.093 14.7509 61.1811 14.7509C61.2693 14.7509 61.3697 16.2125 61.4702 16.2125C61.5706 16.2125 62.3516 14.8022 62.4152 14.8022C62.4787 14.8022 62.7309 16.2002 62.8313 16.1879C62.9318 16.1756 63.6247 14.8022 63.6882 14.8268C63.7518 14.8514 63.9158 16.1756 64.0285 16.1756C64.1413 16.1756 64.746 14.7899 64.8464 14.7899C64.9469 14.7899 65.2011 16.1346 65.2769 16.1346C65.3528 16.1346 65.9821 14.7858 66.058 14.7735C66.1338 14.7612 66.5376 16.2597 66.6627 16.2597C66.7877 16.2597 67.167 14.8739 67.2551 14.8862C67.3433 14.8985 67.9357 16.2084 67.9849 16.2084C68.0341 16.2084 68.4769 14.835 68.5261 14.835C68.5753 14.835 69.1677 16.0813 69.2559 16.0957C69.344 16.108 69.672 14.8493 69.7356 14.8739C69.7991 14.8985 70.4039 16.1961 70.4797 16.2084C70.5555 16.2207 70.82 14.8473 70.8958 14.8473C70.9717 14.8473 71.8019 16.3581 71.8655 16.3458C71.929 16.3335 72.0049 14.8206 72.0787 14.8083C72.1545 14.796 73.1487 16.2945 73.2246 16.2822C73.3004 16.2699 73.2615 14.7571 73.3127 14.7571C73.364 14.7571 74.1819 16.1674 74.2947 16.1551C74.4074 16.1428 74.5079 14.8329 74.5837 14.8329C74.6595 14.8329 75.5656 16.3704 75.6804 16.3581C75.7952 16.3458 75.705 14.9211 75.7563 14.9088C75.8075 14.8965 76.8263 16.1941 76.8776 16.1818C76.9288 16.1695 76.9145 14.7837 77.0026 14.7714C77.0908 14.7591 78.0358 16.1203 78.124 16.0936C78.2121 16.069 78.2244 14.7079 78.2757 14.6956C78.3269 14.6833 79.5077 16.0998 79.5077 16.0998C79.5077 16.0998 79.7373 14.8678 79.3314 13.687C78.9255 12.5062 77.9395 10.8478 77.4618 10.1426C76.9862 9.43745 76.7074 9.11151 76.7074 9.11151L65.0617 7.61914L57.7106 9.1853Z"
        fill="#A37F69" />
      <path d="M61.7489 4.44553C61.7489 4.44553 60.193 5.97685 59.4509 6.86243C58.7088 7.748 57.7085 9.18092 57.7085 9.18092C57.7085 9.18092 57.3456 10.8578 57.4522 10.8701C57.5609 10.8824 58.6248 9.27932 58.7211 9.28957C58.8175 9.30187 58.5653 10.9049 58.6617 10.9295C58.758 10.9541 59.9429 9.26702 60.0024 9.25472C60.0618 9.24242 59.8117 10.9172 59.8937 10.9418C59.9757 10.9664 61.1749 9.26702 61.2467 9.26702C61.3184 9.26702 61.4148 10.8352 61.5091 10.8352C61.6034 10.8352 62.3947 9.24447 62.4664 9.25472C62.5382 9.26702 62.7062 10.8947 62.8251 10.9172C62.944 10.9418 63.4955 9.23012 63.5918 9.21782C63.6882 9.20552 63.926 11.0136 64.0346 11.0136C64.1433 11.0136 64.7172 9.24242 64.789 9.24242C64.8607 9.24242 65.0411 11.0136 65.16 11.0136C65.2789 11.0136 65.8181 9.20757 65.8898 9.20757C65.9616 9.20757 66.4761 10.9418 66.5602 10.9193C66.6442 10.8947 67.0993 9.18502 67.1833 9.19527C67.2674 9.20757 67.661 10.8701 67.8065 10.8947C67.95 10.9193 68.3334 9.27932 68.4523 9.27932C68.5712 9.27932 68.8827 11.0976 69.0262 11.0976C69.1697 11.0976 69.4936 9.27932 69.5654 9.27932C69.6371 9.27932 70.2952 11.0751 70.4038 11.0853C70.5125 11.0976 70.6314 9.37362 70.7626 9.36132C70.8937 9.34902 71.601 11.0853 71.6727 11.073C71.7445 11.0607 71.8039 9.37362 71.8757 9.36132C71.9474 9.34902 72.749 10.9418 72.8802 10.9418C73.0113 10.9418 72.9273 9.28957 73.0482 9.30187C73.1671 9.31417 74.3643 11.0361 74.473 11.0361C74.5816 11.0361 74.1614 9.24037 74.2577 9.21782C74.3541 9.19322 75.6107 11.1325 75.7419 11.0956C75.8731 11.0587 75.4077 9.33672 75.4897 9.31212C75.5738 9.28752 76.8776 10.9992 76.9985 10.9521C77.1174 10.9049 76.7156 9.10917 76.7156 9.10917C76.7156 9.10917 75.5143 7.54096 74.8932 6.77633C74.27 6.00965 73.2901 4.99287 73.2901 4.99287L68.4584 2.58008L61.7489 4.44553Z"
        fill="#BD9177" />
      <path d="M61.7489 4.446C61.7489 4.446 61.1606 5.55502 61.2795 5.62472C61.3984 5.69442 62.8559 4.2943 62.9973 4.32915C63.1388 4.364 62.5258 5.81127 62.7267 5.85842C62.9276 5.90557 63.8911 4.2697 64.01 4.29225C64.1269 4.3148 63.762 5.88097 63.9506 5.94041C64.1392 5.99986 64.9509 4.23281 65.0801 4.2574C65.2092 4.27995 65.1744 6.02241 65.2912 6.03471C65.4081 6.04701 66.0087 4.3394 66.0907 4.3394C66.1727 4.3394 66.4085 6.14131 66.5499 6.15156C66.6913 6.16386 67.1136 4.27585 67.2079 4.27585C67.3022 4.27585 67.7737 6.05726 67.9275 6.05726C68.0812 6.05726 68.1735 4.25945 68.2555 4.22461C68.3375 4.18976 69.0262 5.95067 69.223 5.95067C69.3932 5.95067 69.1041 4.19796 69.2107 4.17336C69.3173 4.15081 70.2931 5.98551 70.494 5.97526C70.6949 5.96296 70.3464 4.26355 70.4407 4.26355C70.535 4.26355 71.6133 5.96296 71.7896 5.96296C71.9659 5.96296 71.4206 4.23486 71.5272 4.21026C71.6338 4.18771 73.2389 5.72517 73.3332 5.70057C73.4275 5.67802 73.286 4.99129 73.286 4.99129C73.286 4.99129 69.4137 1.01028 67.2469 1.00003C65.0329 0.987733 61.7489 4.446 61.7489 4.446Z"
        fill="#D2A590" />
    </g>
    <g filter="url(#filter1_d_135_600)">
      <path d="M40.8823 57.7126C40.4195 57.7126 40.4821 58.2659 40.4821 59.3098C40.4821 60.3538 40.4195 60.9384 40.9728 60.9384C41.526 60.9384 76.5508 60.8758 76.9197 60.8479C77.2886 60.8166 77.1946 59.4664 77.1946 58.9444C77.1946 58.3007 77.2851 57.7474 76.7666 57.7161C76.2446 57.6847 41.0667 57.7126 40.8823 57.7126Z"
        fill="#ED6D30" />
      <path d="M41.0005 49.2048L41.0353 57.7444L76.5786 57.7096L76.6586 48.9751L75.8756 48.0982L41.2858 48.0391L41.0005 49.2048Z"
        fill="#F78A51" />
      <path d="M41.7277 48.5956L41.0004 49.2046L40.9969 50.5583C40.9969 50.5583 41.2336 50.7253 41.4702 50.607C41.7068 50.4887 42.0374 50.259 42.3297 50.2346C42.796 50.1998 42.7578 50.6452 43.2067 50.6452C43.6556 50.6452 44.0627 50.1963 44.442 50.1963C44.8213 50.1963 44.9953 50.6766 45.399 50.6522C45.8026 50.6278 46.0288 50.2207 46.5334 50.2346C46.9371 50.2451 47.0067 50.6522 47.5043 50.6522C48.0019 50.6522 48.2559 50.1789 48.6805 50.1789C49.105 50.1789 49.2442 50.68 49.7175 50.68C50.1907 50.68 50.3195 50.1789 50.8623 50.1789C51.4052 50.1789 51.36 50.6522 51.8089 50.6035C52.2578 50.5548 52.303 50.165 52.8459 50.1407C53.3887 50.1163 53.4444 50.6522 53.9177 50.6522C54.3909 50.6522 54.377 50.2659 54.7807 50.2659C55.1843 50.2659 62.673 50.2485 62.9583 50.2485C63.2437 50.2485 63.6821 50.7496 64.1554 50.7496C64.6287 50.7496 64.4964 50.2137 65.0149 50.1998C65.3246 50.1929 65.9267 50.7148 66.2816 50.7148C66.6365 50.7148 66.7653 50.1789 67.1655 50.1546C67.5657 50.1302 68.1607 50.7462 68.634 50.6974C69.1072 50.6487 68.8706 50.1755 69.2256 50.1302C69.5805 50.0815 70.2904 50.6522 70.7637 50.6731C71.2369 50.6974 70.9307 50.0572 71.4248 50.0572C71.919 50.0572 72.3018 50.6 72.8203 50.6244C73.3388 50.6487 72.9873 50.0815 73.5058 50.0328C74.0243 49.9841 74.4036 50.7427 74.9012 50.694C75.3988 50.6452 75.1866 50.1024 75.6111 50.078C76.0356 50.0537 76.6272 50.433 76.6272 50.433L76.6481 48.9645L56.2005 42.5059L41.7277 48.5956Z"
        fill="#ED6D30" />
      <path d="M54.6729 60.8976C54.6729 60.8976 54.7599 50.6459 54.746 50.3954C54.7286 50.0926 54.9965 50.0195 55.2123 50.0195H62.7984C63.0141 50.0195 63.1394 50.1796 63.1568 50.378C63.1742 50.5763 63.122 60.8802 63.122 60.8802L54.6729 60.8976Z"
        fill="#51362F" />
      <path d="M39.5634 44.2961C39.5634 44.2961 38.1297 47.4663 38.1436 47.7064C38.1575 47.9465 38.5577 49.4045 39.198 49.4428C40.0749 49.495 40.235 48.726 40.3811 48.726C40.5273 48.726 40.7222 49.4776 41.2233 49.5507C41.8079 49.6342 42.2289 48.6946 42.4551 48.6946C42.6813 48.6946 42.7927 49.5124 43.3216 49.5124C43.8506 49.5124 44.4143 48.6285 44.6231 48.6459C44.8319 48.6633 45.0337 49.5855 45.4652 49.5855C45.9002 49.5855 46.3247 48.799 46.7006 48.7608C46.8954 48.7434 47.0799 49.6412 47.4348 49.6551C47.7898 49.6725 48.3953 48.726 48.7015 48.726C49.0077 48.726 49.2478 49.7038 49.7141 49.6586C50.1804 49.6133 50.8103 48.7434 51.033 48.7434C51.2557 48.7434 51.4993 49.6238 51.8647 49.6412C52.1953 49.6551 52.7416 48.813 52.9643 48.799C53.187 48.7851 53.455 49.6586 53.8238 49.6586C54.1927 49.6586 54.5929 48.712 54.8991 48.6946C55.2053 48.6772 55.3341 49.5855 55.703 49.5855C56.0718 49.5855 56.6182 48.6703 56.9557 48.6564C57.2933 48.639 57.4777 49.5333 57.8152 49.5333C58.1528 49.5333 58.5286 48.6251 58.7687 48.6146C59.1411 48.6007 59.3777 49.4985 59.8927 49.5159C60.4077 49.5333 60.6165 48.6494 61.0167 48.6494C61.4169 48.6494 61.5317 49.4846 61.9806 49.502C62.4295 49.5194 62.7984 48.6355 63.1359 48.6494C63.4735 48.6668 63.6962 49.4672 64.0685 49.4672C64.4409 49.4672 64.8063 48.6494 65.0812 48.6633C65.3526 48.6807 65.725 49.4985 66.0938 49.4985C66.4627 49.4985 66.7689 48.6529 66.9464 48.6459C67.2874 48.6355 67.6354 49.5298 67.9903 49.4985C68.3453 49.4672 68.7559 48.5868 69.0621 48.6007C69.3684 48.6181 69.8381 49.5994 70.207 49.5681C70.5759 49.5368 70.8891 48.6042 71.2266 48.6181C71.5642 48.632 71.8356 49.4776 72.2636 49.4776C72.6568 49.4776 72.8761 48.6703 73.231 48.6529C73.5859 48.6355 73.9165 49.4254 74.2854 49.3871C74.6543 49.3489 74.8039 48.6146 75.1275 48.6007C75.4477 48.5833 75.9209 49.4324 76.3872 49.415C76.8535 49.3976 77.0936 48.7399 77.3512 48.726C77.6087 48.712 77.8314 49.4428 78.4578 49.4324C79.0215 49.4254 79.7592 48.371 79.6131 47.6333C79.4669 46.8956 77.4625 43.9551 77.4625 43.9551L39.5634 44.2961Z"
        fill="#6C4D43" />
      <path d="M42.6013 35.893C42.6013 35.893 40.7326 38.5168 39.6225 40.9144C38.5124 43.312 38.0844 44.7318 38.0148 46.1307C37.9452 47.4983 38.1436 47.7071 38.1436 47.7071L40.1723 45.4904C40.1723 45.4904 40.1932 47.5853 40.3428 47.6062C40.4925 47.6271 42.0549 45.4452 42.1593 45.4243C42.2672 45.4034 42.2672 47.6271 42.4168 47.6271C42.5665 47.6271 44.1707 45.3826 44.2786 45.3826C44.3864 45.3826 44.4282 47.6062 44.5569 47.6062C44.6857 47.6062 46.1403 45.3408 46.2481 45.3617C46.356 45.3826 46.7388 47.7349 46.8676 47.7349C46.9963 47.7349 48.343 45.3408 48.4927 45.3408C48.6423 45.3408 48.8128 47.8219 48.9833 47.8219C49.1538 47.8219 50.4797 45.4278 50.5875 45.4278C50.6954 45.4278 51.1234 47.8011 51.2939 47.7802C51.4645 47.7593 52.6406 45.4278 52.7485 45.4696C52.8564 45.5113 53.1348 47.7593 53.3262 47.7593C53.5176 47.7593 54.5441 45.4069 54.7146 45.4069C54.8852 45.4069 55.3167 47.6897 55.4454 47.6897C55.5742 47.6897 56.6425 45.4 56.7712 45.3791C56.9 45.3582 57.5855 47.902 57.7978 47.902C58.0101 47.902 58.6538 45.5496 58.8035 45.5705C58.9531 45.5914 59.9588 47.815 60.0423 47.815C60.1258 47.815 60.8775 45.4835 60.961 45.4835C61.0445 45.4835 62.0502 47.5992 62.1998 47.6236C62.3495 47.6445 62.9062 45.5078 63.0141 45.5496C63.122 45.5914 64.1485 47.7941 64.2773 47.815C64.406 47.8359 64.8549 45.5044 64.9837 45.5044C65.1125 45.5044 66.5218 48.069 66.6297 48.0481C66.7376 48.0273 66.8663 45.4591 66.9916 45.4382C67.1203 45.4174 68.8081 47.9611 68.9368 47.9403C69.0656 47.9194 68.9995 45.3512 69.0865 45.3512C69.1735 45.3512 70.5619 47.7454 70.7533 47.7245C70.9447 47.7036 71.1152 45.48 71.244 45.48C71.3727 45.48 72.9108 48.0899 73.1057 48.069C73.3006 48.0481 73.1474 45.6296 73.2344 45.6088C73.3214 45.5879 75.0509 47.7906 75.1379 47.7697C75.2249 47.7489 75.2006 45.3965 75.3502 45.3756C75.4998 45.3547 77.104 47.6653 77.2537 47.6201C77.4033 47.5784 77.4242 45.2677 77.5112 45.2468C77.5982 45.226 79.6026 47.6305 79.6026 47.6305C79.6026 47.6305 79.9923 45.5392 79.3033 43.5348C78.6143 41.5304 76.9405 38.7152 76.1297 37.5181C75.3224 36.321 74.8491 35.7677 74.8491 35.7677L55.08 33.2344L42.6013 35.893Z"
        fill="#A37F69" />
      <path d="M49.4566 27.8503C49.4566 27.8503 46.8154 30.4497 45.5557 31.953C44.2959 33.4563 42.5978 35.8887 42.5978 35.8887C42.5978 35.8887 41.9818 38.7353 42.1628 38.7561C42.3472 38.777 44.1533 36.0558 44.3168 36.0732C44.4804 36.094 44.0524 38.8153 44.2159 38.8571C44.3795 38.8988 46.3908 36.0349 46.4917 36.014C46.5927 35.9931 46.1681 38.8362 46.3073 38.8779C46.4465 38.9197 48.4822 36.0349 48.604 36.0349C48.7258 36.0349 48.8894 38.697 49.0494 38.697C49.2095 38.697 50.5527 35.9966 50.6745 36.014C50.7963 36.0349 51.0817 38.7979 51.2835 38.8362C51.4853 38.8779 52.4214 35.9723 52.585 35.9514C52.7485 35.9305 53.1522 38.9997 53.3366 38.9997C53.5211 38.9997 54.4954 35.9931 54.6172 35.9931C54.739 35.9931 55.0452 38.9997 55.2471 38.9997C55.4489 38.9997 56.3641 35.934 56.4859 35.934C56.6077 35.934 57.4811 38.8779 57.6238 38.8397C57.7665 38.7979 58.539 35.8957 58.6817 35.9131C58.8244 35.934 59.4925 38.7561 59.7396 38.7979C59.9832 38.8397 60.6339 36.0558 60.8357 36.0558C61.0375 36.0558 61.5665 39.1424 61.8101 39.1424C62.0537 39.1424 62.6035 36.0558 62.7253 36.0558C62.8471 36.0558 63.9641 39.1041 64.1485 39.1215C64.333 39.1424 64.5348 36.2158 64.7575 36.195C64.9802 36.1741 66.1808 39.1215 66.3026 39.1006C66.4244 39.0798 66.5253 36.2158 66.6471 36.195C66.7689 36.1741 68.1295 38.8779 68.3522 38.8779C68.5749 38.8779 68.4322 36.0732 68.6376 36.094C68.8394 36.1149 70.8716 39.038 71.0561 39.038C71.2405 39.038 70.5271 35.9897 70.6907 35.9514C70.8542 35.9096 72.9874 39.2016 73.2101 39.1389C73.4328 39.0763 72.6429 36.1532 72.7821 36.1114C72.9247 36.0697 75.1379 38.9754 75.3432 38.8953C75.5451 38.8153 74.863 35.7669 74.863 35.7669C74.863 35.7669 72.8238 33.1049 71.7694 31.8069C70.7116 30.5054 69.0482 28.7794 69.0482 28.7794L60.8462 24.6836L49.4566 27.8503Z"
        fill="#BD9177" />
      <path d="M49.4566 27.8497C49.4566 27.8497 48.4579 29.7323 48.6597 29.8506C48.8615 29.9689 51.3357 27.5922 51.5758 27.6513C51.8159 27.7105 50.7754 30.1673 51.1165 30.2473C51.4575 30.3274 53.093 27.5504 53.2949 27.5887C53.4932 27.627 52.8738 30.2856 53.1939 30.3865C53.5141 30.4874 54.8921 27.4878 55.1113 27.5296C55.3306 27.5678 55.2714 30.5257 55.4698 30.5466C55.6681 30.5675 56.6877 27.6687 56.8269 27.6687C56.9661 27.6687 57.3663 30.7275 57.6064 30.7449C57.8465 30.7658 58.5634 27.5609 58.7234 27.5609C58.8835 27.5609 59.6839 30.5849 59.9449 30.5849C60.2059 30.5849 60.3624 27.533 60.5016 27.4739C60.6408 27.4147 61.8101 30.4039 62.1441 30.4039C62.433 30.4039 61.9423 27.4286 62.1233 27.3869C62.3042 27.3486 63.9606 30.4631 64.3016 30.4457C64.6427 30.4248 64.0511 27.54 64.2112 27.54C64.3712 27.54 66.2017 30.4248 66.5009 30.4248C66.8002 30.4248 65.8745 27.4913 66.0555 27.4495C66.2364 27.4112 68.9612 30.0211 69.1213 29.9794C69.2813 29.9411 69.0412 28.7753 69.0412 28.7753C69.0412 28.7753 62.4678 22.0175 58.7896 22.0001C55.0313 21.9792 49.4566 27.8497 49.4566 27.8497Z"
        fill="#D2A590" />
    </g>
    <g filter="url(#filter2_d_135_600)">
      <path d="M2.21606 35.4599C1.86021 35.4599 1.90837 35.8854 1.90837 36.688C1.90837 37.4907 1.86021 37.9402 2.28563 37.9402C2.71104 37.9402 29.6404 37.892 29.924 37.8706C30.2076 37.8465 30.1354 36.8084 30.1354 36.4071C30.1354 35.9121 30.205 35.4867 29.8063 35.4626C29.405 35.4385 2.35787 35.4599 2.21606 35.4599Z"
        fill="#ED6D30" />
      <path d="M2.30701 28.9178L2.33376 35.4836L29.6618 35.4568L29.7233 28.7412L29.1213 28.067L2.5264 28.0215L2.30701 28.9178Z"
        fill="#F78A51" />
      <path d="M2.86613 28.4478L2.30694 28.9161L2.30426 29.9568C2.30426 29.9568 2.4862 30.0853 2.66813 29.9943C2.85007 29.9033 3.10425 29.7267 3.32899 29.708C3.68752 29.6813 3.65809 30.0237 4.00323 30.0237C4.34838 30.0237 4.66142 29.6786 4.95305 29.6786C5.24469 29.6786 5.37846 30.0478 5.68883 30.0291C5.99919 30.0103 6.1731 29.6973 6.56105 29.708C6.87142 29.716 6.92493 30.0291 7.30753 30.0291C7.69014 30.0291 7.88545 29.6652 8.21187 29.6652C8.53828 29.6652 8.64531 30.0505 9.00918 30.0505C9.37305 30.0505 9.47205 29.6652 9.88943 29.6652C10.3068 29.6652 10.272 30.0291 10.6172 29.9916C10.9623 29.9542 10.9971 29.6545 11.4145 29.6358C11.8319 29.617 11.8747 30.0291 12.2386 30.0291C12.6024 30.0291 12.5917 29.7321 12.9021 29.7321C13.2125 29.7321 18.9702 29.7187 19.1896 29.7187C19.409 29.7187 19.7461 30.104 20.11 30.104C20.4739 30.104 20.3722 29.692 20.7709 29.6813C21.009 29.6759 21.4719 30.0772 21.7448 30.0772C22.0177 30.0772 22.1167 29.6652 22.4244 29.6465C22.7321 29.6277 23.1896 30.1013 23.5534 30.0639C23.9173 30.0264 23.7354 29.6625 24.0083 29.6277C24.2812 29.5903 24.827 30.0291 25.1909 30.0451C25.5548 30.0639 25.3193 29.5716 25.6992 29.5716C26.0792 29.5716 26.3735 29.9889 26.7721 30.0077C27.1708 30.0264 26.9006 29.5903 27.2992 29.5528C27.6979 29.5154 27.9895 30.0986 28.3721 30.0612C28.7547 30.0237 28.5915 29.6063 28.9179 29.5876C29.2443 29.5689 29.6992 29.8605 29.6992 29.8605L29.7152 28.7314L13.9937 23.7656L2.86613 28.4478Z"
        fill="#ED6D30" />
      <path d="M12.8193 37.9087C12.8193 37.9087 12.8862 30.0265 12.8755 29.8339C12.8621 29.6011 13.0681 29.5449 13.234 29.5449H19.0667C19.2326 29.5449 19.3289 29.668 19.3423 29.8205C19.3556 29.973 19.3155 37.8953 19.3155 37.8953L12.8193 37.9087Z"
        fill="#51362F" />
      <path d="M1.20205 25.1411C1.20205 25.1411 0.0997268 27.5785 0.110429 27.7631C0.121131 27.9478 0.428819 29.0688 0.92112 29.0982C1.59536 29.1384 1.71843 28.5471 1.83081 28.5471C1.94318 28.5471 2.09301 29.125 2.47829 29.1812C2.92778 29.2454 3.25152 28.523 3.42543 28.523C3.59934 28.523 3.68496 29.1518 4.09164 29.1518C4.49833 29.1518 4.93176 28.4722 5.0923 28.4855C5.25283 28.4989 5.40801 29.2079 5.73978 29.2079C6.07422 29.2079 6.40064 28.6033 6.6896 28.5738C6.83943 28.5605 6.98123 29.2507 7.25414 29.2615C7.52704 29.2748 7.99259 28.5471 8.22804 28.5471C8.46348 28.5471 8.6481 29.2989 9.00662 29.2641C9.36514 29.2293 9.84942 28.5605 10.0207 28.5605C10.1919 28.5605 10.3792 29.2374 10.6601 29.2507C10.9143 29.2615 11.3343 28.614 11.5056 28.6033C11.6768 28.5926 11.8828 29.2641 12.1664 29.2641C12.45 29.2641 12.7577 28.5364 12.9932 28.523C13.2286 28.5096 13.3276 29.2079 13.6112 29.2079C13.8948 29.2079 14.3149 28.5043 14.5744 28.4936C14.834 28.4802 14.9758 29.1678 15.2353 29.1678C15.4948 29.1678 15.7838 28.4695 15.9684 28.4615C16.2547 28.4508 16.4366 29.1411 16.8326 29.1544C17.2286 29.1678 17.3891 28.4882 17.6968 28.4882C18.0045 28.4882 18.0928 29.1303 18.4379 29.1437C18.7831 29.1571 19.0667 28.4775 19.3262 28.4882C19.5857 28.5016 19.757 29.117 20.0432 29.117C20.3295 29.117 20.6105 28.4882 20.8218 28.4989C21.0305 28.5123 21.3168 29.1411 21.6004 29.1411C21.884 29.1411 22.1195 28.4909 22.2559 28.4855C22.5181 28.4775 22.7857 29.1651 23.0586 29.1411C23.3315 29.117 23.6472 28.4401 23.8827 28.4508C24.1181 28.4641 24.4793 29.2186 24.7629 29.1946C25.0465 29.1705 25.2873 28.4534 25.5468 28.4641C25.8064 28.4748 26.0151 29.125 26.3442 29.125C26.6465 29.125 26.8151 28.5043 27.088 28.4909C27.3609 28.4775 27.615 29.0849 27.8987 29.0554C28.1823 29.026 28.2973 28.4615 28.5461 28.4508C28.7923 28.4374 29.1562 29.0902 29.5147 29.0768C29.8732 29.0635 30.0578 28.5578 30.2558 28.5471C30.4538 28.5364 30.625 29.0982 31.1066 29.0902C31.5401 29.0849 32.1073 28.2742 31.9949 27.707C31.8825 27.1397 30.3414 24.8789 30.3414 24.8789L1.20205 25.1411Z"
        fill="#6C4D43" />
      <path d="M3.53775 18.6808C3.53775 18.6808 2.10099 20.6982 1.24749 22.5416C0.393987 24.3851 0.0648949 25.4767 0.011384 26.5523C-0.0421269 27.6038 0.110379 27.7643 0.110379 27.7643L1.67022 26.06C1.67022 26.06 1.68628 27.6707 1.80132 27.6867C1.91637 27.7028 3.11769 26.0252 3.19796 26.0092C3.2809 25.9931 3.2809 27.7028 3.39595 27.7028C3.511 27.7028 4.74442 25.9771 4.82737 25.9771C4.91031 25.9771 4.94241 27.6867 5.04141 27.6867C5.1404 27.6867 6.25878 25.9449 6.34172 25.961C6.42467 25.977 6.71898 27.7857 6.81797 27.7857C6.91697 27.7857 7.9524 25.9449 8.06745 25.9449C8.1825 25.9449 8.3136 27.8526 8.4447 27.8526C8.57581 27.8526 9.59519 26.0118 9.67813 26.0118C9.76107 26.0118 10.0902 27.8366 10.2213 27.8205C10.3524 27.8044 11.2567 26.0118 11.3396 26.0439C11.4226 26.076 11.6366 27.8044 11.7838 27.8044C11.9309 27.8044 12.7202 25.9958 12.8513 25.9958C12.9824 25.9958 13.3142 27.7509 13.4132 27.7509C13.5122 27.7509 14.3336 25.9904 14.4326 25.9744C14.5316 25.9583 15.0587 27.9141 15.2219 27.9141C15.3851 27.9141 15.88 26.1055 15.9951 26.1215C16.1101 26.1376 16.8834 27.8473 16.9476 27.8473C17.0118 27.8473 17.5897 26.0546 17.6539 26.0546C17.7181 26.0546 18.4914 27.6814 18.6064 27.7001C18.7215 27.7162 19.1496 26.0734 19.2325 26.1055C19.3154 26.1376 20.1047 27.8312 20.2037 27.8473C20.3027 27.8633 20.6479 26.0707 20.7469 26.0707C20.8459 26.0707 21.9295 28.0426 22.0124 28.0265C22.0953 28.0105 22.1943 26.0359 22.2907 26.0199C22.3896 26.0038 23.6873 27.9596 23.7863 27.9436C23.8853 27.9275 23.8344 25.953 23.9013 25.953C23.9682 25.953 25.0358 27.7937 25.1829 27.7777C25.3301 27.7616 25.4612 26.052 25.5602 26.052C25.6592 26.052 26.8418 28.0586 26.9916 28.0426C27.1414 28.0265 27.0237 26.167 27.0906 26.151C27.1575 26.1349 28.4872 27.8285 28.5541 27.8125C28.621 27.7964 28.6023 25.9878 28.7173 25.9717C28.8324 25.9556 30.0658 27.7322 30.1808 27.6974C30.2959 27.6653 30.3119 25.8888 30.3788 25.8727C30.4457 25.8567 31.9868 27.7055 31.9868 27.7055C31.9868 27.7055 32.2865 26.0974 31.7567 24.5563C31.227 23.0152 29.94 20.8507 29.3166 19.9303C28.6959 19.0099 28.332 18.5845 28.332 18.5845L13.1323 16.6367L3.53775 18.6808Z"
        fill="#A37F69" />
      <path d="M8.80852 12.4992C8.80852 12.4992 6.77778 14.4978 5.80923 15.6537C4.84069 16.8095 3.53502 18.6797 3.53502 18.6797C3.53502 18.6797 3.06145 20.8683 3.20058 20.8844C3.34238 20.9004 4.73099 18.8081 4.85674 18.8215C4.98249 18.8376 4.6534 20.9298 4.77915 20.962C4.9049 20.9941 6.45136 18.7921 6.52896 18.776C6.60655 18.76 6.28013 20.9459 6.38715 20.978C6.49417 21.0101 8.05937 18.7921 8.15301 18.7921C8.24666 18.7921 8.37241 20.8389 8.49548 20.8389C8.61856 20.8389 9.65132 18.7627 9.74496 18.776C9.83861 18.7921 10.058 20.9165 10.2132 20.9459C10.3684 20.978 11.0881 18.7439 11.2138 18.7279C11.3396 18.7118 11.65 21.0716 11.7918 21.0716C11.9336 21.0716 12.6827 18.76 12.7764 18.76C12.87 18.76 13.1054 21.0716 13.2606 21.0716C13.4158 21.0716 14.1195 18.7145 14.2131 18.7145C14.3068 18.7145 14.9783 20.978 15.088 20.9486C15.1977 20.9165 15.7917 18.6851 15.9014 18.6984C16.0111 18.7145 16.5248 20.8844 16.7148 20.9165C16.902 20.9486 17.4024 18.8081 17.5576 18.8081C17.7127 18.8081 18.1194 21.1813 18.3067 21.1813C18.494 21.1813 18.9167 18.8081 19.0104 18.8081C19.104 18.8081 19.9629 21.1519 20.1047 21.1653C20.2465 21.1813 20.4017 18.9312 20.5729 18.9152C20.7441 18.8991 21.6672 21.1653 21.7608 21.1492C21.8545 21.1332 21.9321 18.9312 22.0257 18.9152C22.1194 18.8991 23.1655 20.978 23.3367 20.978C23.508 20.978 23.3983 18.8215 23.5561 18.8376C23.7113 18.8536 25.2738 21.1011 25.4156 21.1011C25.5574 21.1011 25.009 18.7573 25.1347 18.7279C25.2605 18.6958 26.9006 21.2268 27.0718 21.1787C27.243 21.1305 26.6357 18.8831 26.7427 18.8509C26.8524 18.8188 28.554 21.0529 28.7119 20.9914C28.8671 20.9298 28.3427 18.5861 28.3427 18.5861C28.3427 18.5861 26.7748 16.5393 25.9641 15.5413C25.1508 14.5406 23.8718 13.2136 23.8718 13.2136L17.5656 10.0645L8.80852 12.4992Z"
        fill="#BD9177" />
      <path d="M8.80858 12.4976C8.80858 12.4976 8.0407 13.9451 8.19588 14.0361C8.35106 14.127 10.2534 12.2996 10.438 12.3451C10.6226 12.3906 9.82261 14.2796 10.0848 14.3411C10.347 14.4026 11.6045 12.2675 11.7597 12.297C11.9122 12.3264 11.436 14.3705 11.6821 14.4481C11.9283 14.5257 12.9878 12.2194 13.1563 12.2515C13.3249 12.2809 13.2794 14.5551 13.4319 14.5712C13.5844 14.5872 14.3684 12.3585 14.4754 12.3585C14.5824 12.3585 14.8901 14.7103 15.0747 14.7237C15.2593 14.7397 15.8105 12.2756 15.9336 12.2756C16.0566 12.2756 16.672 14.6006 16.8727 14.6006C17.0733 14.6006 17.1937 12.2542 17.3008 12.2087C17.4078 12.1632 18.3068 14.4615 18.5636 14.4615C18.7857 14.4615 18.4084 12.1739 18.5476 12.1418C18.6867 12.1124 19.9603 14.507 20.2225 14.4936C20.4847 14.4775 20.0298 12.2595 20.1529 12.2595C20.276 12.2595 21.6833 14.4775 21.9134 14.4775C22.1435 14.4775 21.4318 12.2221 21.5709 12.1899C21.7101 12.1605 23.805 14.1672 23.9281 14.1351C24.0512 14.1056 23.8666 13.2093 23.8666 13.2093C23.8666 13.2093 18.8124 8.01342 15.9844 8.00004C13.0948 7.98399 8.80858 12.4976 8.80858 12.4976Z"
        fill="#D2A590" />
    </g>
    <g filter="url(#filter3_d_135_600)">
      <path d="M3.2531 74.3078C2.73073 74.3078 2.80143 74.9323 2.80143 76.1106C2.80143 77.2889 2.73073 77.9487 3.35522 77.9487C3.97971 77.9487 43.5112 77.878 43.9275 77.8466C44.3438 77.8112 44.2378 76.2873 44.2378 75.6982C44.2378 74.9716 44.3399 74.3471 43.7547 74.3117C43.1655 74.2764 3.46127 74.3078 3.2531 74.3078Z"
        fill="#ED6D30" />
      <path d="M3.3866 64.7064L3.42587 74.3447L43.5425 74.3055L43.6329 64.4472L42.7492 63.4574L3.70866 63.3906L3.3866 64.7064Z"
        fill="#F78A51" />
      <path d="M4.20743 64.0198L3.38656 64.7071L3.38263 66.235C3.38263 66.235 3.64971 66.4235 3.91679 66.29C4.18386 66.1564 4.55699 65.8972 4.88691 65.8697C5.41321 65.8304 5.37 66.3332 5.87667 66.3332C6.38333 66.3332 6.84286 65.8265 7.27097 65.8265C7.69908 65.8265 7.89546 66.3685 8.35106 66.341C8.80667 66.3135 9.06196 65.854 9.63147 65.8697C10.0871 65.8815 10.1656 66.341 10.7273 66.341C11.2889 66.341 11.5756 65.8069 12.0548 65.8069C12.534 65.8069 12.6911 66.3725 13.2252 66.3725C13.7594 66.3725 13.9047 65.8069 14.5174 65.8069C15.1301 65.8069 15.0791 66.341 15.5857 66.286C16.0924 66.2311 16.1435 65.7912 16.7562 65.7637C17.3689 65.7362 17.4317 66.341 17.9659 66.341C18.5 66.341 18.4843 65.9051 18.9399 65.9051C19.3955 65.9051 27.8478 65.8854 28.1698 65.8854C28.4919 65.8854 28.9868 66.451 29.5209 66.451C30.0551 66.451 29.9058 65.8462 30.491 65.8304C30.8406 65.8226 31.5201 66.4117 31.9207 66.4117C32.3213 66.4117 32.4666 65.8069 32.9183 65.7794C33.37 65.7519 34.0416 66.4471 34.5758 66.3921C35.1099 66.3371 34.8428 65.8029 35.2435 65.7519C35.6441 65.6969 36.4453 66.341 36.9795 66.3646C37.5136 66.3921 37.168 65.6694 37.7257 65.6694C38.2834 65.6694 38.7155 66.2821 39.3007 66.3096C39.8859 66.3371 39.4892 65.6969 40.0744 65.6419C40.6596 65.5869 41.0878 66.4432 41.6494 66.3882C42.211 66.3332 41.9715 65.7205 42.4506 65.693C42.9298 65.6655 43.5975 66.0936 43.5975 66.0936L43.6211 64.4361L20.5424 57.1465L4.20743 64.0198Z"
        fill="#ED6D30" />
      <path d="M18.8182 77.9027C18.8182 77.9027 18.9164 66.332 18.9007 66.0492C18.8811 65.7075 19.1835 65.625 19.427 65.625H27.9892C28.2327 65.625 28.3741 65.8057 28.3938 66.0295C28.4134 66.2534 28.3545 77.8831 28.3545 77.8831L18.8182 77.9027Z"
        fill="#51362F" />
      <path d="M1.76451 59.1642C1.76451 59.1642 0.146329 62.7423 0.16204 63.0133C0.17775 63.2843 0.629426 64.9299 1.35211 64.9732C2.34187 65.0321 2.52254 64.1641 2.6875 64.1641C2.85246 64.1641 3.0724 65.0124 3.63798 65.0949C4.29782 65.1892 4.77306 64.1287 5.02836 64.1287C5.28365 64.1287 5.40934 65.0517 6.00633 65.0517C6.60333 65.0517 7.23961 64.0541 7.47526 64.0737C7.71092 64.0934 7.93872 65.1342 8.42575 65.1342C8.9167 65.1342 9.39587 64.2465 9.82005 64.2033C10.04 64.1837 10.2482 65.197 10.6488 65.2127C11.0494 65.2324 11.7328 64.1641 12.0784 64.1641C12.4241 64.1641 12.6951 65.2677 13.2214 65.2167C13.7477 65.1656 14.4586 64.1837 14.7099 64.1837C14.9613 64.1837 15.2362 65.1774 15.6486 65.197C16.0218 65.2127 16.6384 64.2623 16.8898 64.2465C17.1411 64.2308 17.4436 65.2167 17.8599 65.2167C18.2762 65.2167 18.7279 64.1484 19.0735 64.1287C19.4191 64.1091 19.5645 65.1342 19.9808 65.1342C20.3971 65.1342 21.0138 64.1012 21.3947 64.0855C21.7757 64.0659 21.9839 65.0753 22.3649 65.0753C22.7458 65.0753 23.17 64.0502 23.441 64.0384C23.8613 64.0227 24.1284 65.036 24.7096 65.0556C25.2909 65.0753 25.5266 64.0777 25.9783 64.0777C26.4299 64.0777 26.5596 65.0203 27.0662 65.0399C27.5729 65.0596 27.9892 64.0619 28.3702 64.0777C28.7512 64.0973 29.0025 65.0006 29.4228 65.0006C29.843 65.0006 30.2554 64.0777 30.5657 64.0934C30.8721 64.113 31.2923 65.036 31.7087 65.036C32.125 65.036 32.4706 64.0816 32.6709 64.0737C33.0558 64.0619 33.4486 65.0713 33.8492 65.036C34.2498 65.0006 34.7133 64.007 35.0589 64.0227C35.4045 64.0423 35.9348 65.1499 36.3511 65.1145C36.7674 65.0792 37.1209 64.0266 37.5019 64.0423C37.8829 64.058 38.1892 65.0124 38.6723 65.0124C39.1161 65.0124 39.3636 64.1012 39.7642 64.0816C40.1648 64.0619 40.5379 64.9535 40.9543 64.9103C41.3706 64.8671 41.5395 64.0384 41.9048 64.0227C42.2661 64.003 42.8002 64.9614 43.3265 64.9417C43.8528 64.9221 44.1239 64.1798 44.4145 64.1641C44.7051 64.1484 44.9565 64.9732 45.6635 64.9614C46.2998 64.9535 47.1324 63.7634 46.9674 62.9308C46.8025 62.0981 44.5402 58.7793 44.5402 58.7793L1.76451 59.1642Z"
        fill="#6C4D43" />
      <path d="M5.19331 49.6804C5.19331 49.6804 3.08418 52.6418 1.83127 55.3479C0.57836 58.0541 0.0952637 59.6565 0.0167114 61.2354C-0.0618409 62.779 0.162033 63.0146 0.162033 63.0146L2.45183 60.5128C2.45183 60.5128 2.4754 62.8772 2.64429 62.9007C2.81317 62.9243 4.57667 60.4617 4.6945 60.4381C4.81626 60.4146 4.81626 62.9243 4.98515 62.9243C5.15403 62.9243 6.96466 60.391 7.08642 60.391C7.20818 60.391 7.25531 62.9007 7.40063 62.9007C7.54595 62.9007 9.18769 60.3439 9.30945 60.3674C9.43121 60.391 9.86324 63.0461 10.0086 63.0461C10.1539 63.0461 11.6739 60.3439 11.8428 60.3439C12.0117 60.3439 12.2041 63.1443 12.3966 63.1443C12.589 63.1443 14.0854 60.4421 14.2072 60.4421C14.3289 60.4421 14.812 63.1207 15.0045 63.0971C15.1969 63.0736 16.5245 60.4421 16.6462 60.4892C16.768 60.5363 17.0822 63.0736 17.2982 63.0736C17.5142 63.0736 18.6729 60.4185 18.8653 60.4185C19.0578 60.4185 19.5448 62.995 19.6901 62.995C19.8355 62.995 21.0412 60.4106 21.1866 60.3871C21.3319 60.3635 22.1056 63.2346 22.3452 63.2346C22.5848 63.2346 23.3114 60.5795 23.4803 60.6031C23.6492 60.6267 24.7843 63.1364 24.8785 63.1364C24.9728 63.1364 25.8211 60.5049 25.9154 60.5049C26.0097 60.5049 27.1448 62.8929 27.3136 62.9204C27.4825 62.9439 28.1109 60.5324 28.2327 60.5795C28.3545 60.6267 29.5131 63.1128 29.6584 63.1364C29.8038 63.16 30.3104 60.5285 30.4557 60.5285C30.6011 60.5285 32.1917 63.4231 32.3135 63.3996C32.4353 63.376 32.5806 60.4774 32.722 60.4538C32.8673 60.4303 34.7722 63.3014 34.9175 63.2778C35.0628 63.2542 34.9882 60.3556 35.0864 60.3556C35.1846 60.3556 36.7517 63.0578 36.9677 63.0343C37.1837 63.0107 37.3762 60.501 37.5215 60.501C37.6668 60.501 39.4028 63.4467 39.6228 63.4231C39.8427 63.3996 39.6699 60.6699 39.7681 60.6463C39.8663 60.6227 41.8183 63.1089 41.9165 63.0853C42.0147 63.0618 41.9872 60.4067 42.1561 60.3831C42.325 60.3596 44.1356 62.9675 44.3045 62.9165C44.4734 62.8693 44.497 60.2614 44.5952 60.2378C44.6933 60.2143 46.9556 62.9282 46.9556 62.9282C46.9556 62.9282 47.3955 60.5677 46.6179 58.3054C45.8402 56.0431 43.951 52.8657 43.0359 51.5146C42.1247 50.1635 41.5905 49.539 41.5905 49.539L19.2777 46.6797L5.19331 49.6804Z"
        fill="#A37F69" />
      <path d="M12.9307 40.6034C12.9307 40.6034 9.94961 43.5374 8.52782 45.2341C7.10602 46.9308 5.18934 49.6762 5.18934 49.6762C5.18934 49.6762 4.49415 52.889 4.69839 52.9126C4.90655 52.9361 6.94499 49.8647 7.12958 49.8844C7.31418 49.908 6.83109 52.9793 7.01568 53.0265C7.20028 53.0736 9.47044 49.8412 9.58435 49.8176C9.69825 49.7941 9.21908 53.0029 9.37618 53.05C9.53329 53.0972 11.8309 49.8412 11.9684 49.8412C12.1059 49.8412 12.2905 52.8458 12.4711 52.8458C12.6518 52.8458 14.1679 49.798 14.3053 49.8176C14.4428 49.8412 14.7649 52.9597 14.9927 53.0029C15.2205 53.05 16.277 49.7705 16.4616 49.7469C16.6462 49.7234 17.1018 53.1875 17.31 53.1875C17.5181 53.1875 18.6179 49.7941 18.7553 49.7941C18.8928 49.7941 19.2384 53.1875 19.4662 53.1875C19.694 53.1875 20.727 49.7273 20.8645 49.7273C21.0019 49.7273 21.9878 53.05 22.1488 53.0068C22.3098 52.9597 23.1818 49.6841 23.3428 49.7037C23.5038 49.7273 24.2579 52.9126 24.5368 52.9597C24.8117 53.0068 25.5462 49.8647 25.774 49.8647C26.0018 49.8647 26.5988 53.3485 26.8737 53.3485C27.1486 53.3485 27.7692 49.8647 27.9067 49.8647C28.0441 49.8647 29.3049 53.3053 29.5131 53.325C29.7212 53.3485 29.949 50.0454 30.2004 50.0219C30.4518 49.9983 31.8068 53.325 31.9443 53.3014C32.0817 53.2778 32.1956 50.0454 32.3331 50.0219C32.4706 49.9983 34.0063 53.05 34.2576 53.05C34.509 53.05 34.348 49.8844 34.5797 49.908C34.8075 49.9315 37.1012 53.2307 37.3094 53.2307C37.5176 53.2307 36.7124 49.7901 36.897 49.7469C37.0816 49.6998 39.4892 53.4153 39.7406 53.3446C39.992 53.2739 39.1004 49.9747 39.2575 49.9276C39.4185 49.8805 41.9165 53.16 42.1482 53.0697C42.376 52.9793 41.6062 49.5388 41.6062 49.5388C41.6062 49.5388 39.3046 46.5341 38.1146 45.0691C36.9206 43.6002 35.0432 41.6521 35.0432 41.6521L25.7858 37.0293L12.9307 40.6034Z"
        fill="#BD9177" />
      <path d="M12.9307 40.6024C12.9307 40.6024 11.8035 42.7272 12.0313 42.8608C12.2591 42.9943 15.0516 40.3117 15.3226 40.3785C15.5936 40.4453 14.4192 43.2182 14.8042 43.3085C15.1891 43.3989 17.035 40.2646 17.2628 40.3078C17.4867 40.351 16.7876 43.3517 17.1489 43.4656C17.5103 43.5795 19.0656 40.1939 19.3131 40.241C19.5605 40.2842 19.4937 43.6227 19.7176 43.6463C19.9415 43.6699 21.0923 40.3982 21.2494 40.3982C21.4065 40.3982 21.8581 43.8505 22.1292 43.8702C22.4002 43.8937 23.2092 40.2764 23.3899 40.2764C23.5706 40.2764 24.4739 43.6895 24.7685 43.6895C25.0631 43.6895 25.2398 40.245 25.3969 40.1782C25.554 40.1114 26.8737 43.4853 27.2508 43.4853C27.5768 43.4853 27.023 40.1271 27.2272 40.08C27.4314 40.0368 29.301 43.552 29.6859 43.5324C30.0708 43.5088 29.4031 40.2528 29.5838 40.2528C29.7644 40.2528 31.8304 43.5088 32.1681 43.5088C32.5059 43.5088 31.4612 40.1978 31.6654 40.1507C31.8696 40.1075 34.945 43.0532 35.1256 43.0061C35.3063 42.9629 35.0353 41.6471 35.0353 41.6471C35.0353 41.6471 27.616 34.0197 23.4645 34.0001C19.2227 33.9765 12.9307 40.6024 12.9307 40.6024Z"
        fill="#D2A590" />
    </g>
  </g>
  <defs>
    <filter id="filter0_d_135_600"
      x="55"
      y="-3"
      width="28.5724"
      height="26.9395"
      filterUnits="userSpaceOnUse"
      color-interpolation-filters="s-rGB">
      <feFlood flood-opacity="0"
        result="BackgroundImageFix" />
      <feColorMatrix in="SourceAlpha"
        type="matrix"
        values="0 0 0 0 0 0 0 0 0 0 0 0 0 0 0 0 0 0 127 0"
        result="hardAlpha" />
      <feOffset dx="2"
        dy="-2" />
      <feGaussianBlur stdDeviation="1" />
      <feComposite in2="hardAlpha"
        operator="out" />
      <feColorMatrix type="matrix"
        values="0 0 0 0 1 0 0 0 0 1 0 0 0 0 1 0 0 0 1 0" />
      <feBlend mode="normal"
        in2="BackgroundImageFix"
        result="effect1_dropShadow_135_600" />
      <feBlend mode="normal"
        in="SourceGraphic"
        in2="effect1_dropShadow_135_600"
        result="shape" />
    </filter>
    <filter id="filter1_d_135_600"
      x="38"
      y="18"
      width="45.7124"
      height="42.9375"
      filterUnits="userSpaceOnUse"
      color-interpolation-filters="s-rGB">
      <feFlood flood-opacity="0"
        result="BackgroundImageFix" />
      <feColorMatrix in="SourceAlpha"
        type="matrix"
        values="0 0 0 0 0 0 0 0 0 0 0 0 0 0 0 0 0 0 127 0"
        result="hardAlpha" />
      <feOffset dx="2"
        dy="-2" />
      <feGaussianBlur stdDeviation="1" />
      <feComposite in2="hardAlpha"
        operator="out" />
      <feColorMatrix type="matrix"
        values="0 0 0 0 1 0 0 0 0 1 0 0 0 0 1 0 0 0 1 0" />
      <feBlend mode="normal"
        in2="BackgroundImageFix"
        result="effect1_dropShadow_135_600" />
      <feBlend mode="normal"
        in="SourceGraphic"
        in2="effect1_dropShadow_135_600"
        result="shape" />
    </filter>
    <filter id="filter2_d_135_600"
      x="0"
      y="4"
      width="36.0713"
      height="33.9395"
      filterUnits="userSpaceOnUse"
      color-interpolation-filters="s-rGB">
      <feFlood flood-opacity="0"
        result="BackgroundImageFix" />
      <feColorMatrix in="SourceAlpha"
        type="matrix"
        values="0 0 0 0 0 0 0 0 0 0 0 0 0 0 0 0 0 0 127 0"
        result="hardAlpha" />
      <feOffset dx="2"
        dy="-2" />
      <feGaussianBlur stdDeviation="1" />
      <feComposite in2="hardAlpha"
        operator="out" />
      <feColorMatrix type="matrix"
        values="0 0 0 0 1 0 0 0 0 1 0 0 0 0 1 0 0 0 1 0" />
      <feBlend mode="normal"
        in2="BackgroundImageFix"
        result="effect1_dropShadow_135_600" />
      <feBlend mode="normal"
        in="SourceGraphic"
        in2="effect1_dropShadow_135_600"
        result="shape" />
    </filter>
    <filter id="filter3_d_135_600"
      x="0"
      y="30"
      width="51.0796"
      height="47.9492"
      filterUnits="userSpaceOnUse"
      color-interpolation-filters="s-rGB">
      <feFlood flood-opacity="0"
        result="BackgroundImageFix" />
      <feColorMatrix in="SourceAlpha"
        type="matrix"
        values="0 0 0 0 0 0 0 0 0 0 0 0 0 0 0 0 0 0 127 0"
        result="hardAlpha" />
      <feOffset dx="2"
        dy="-2" />
      <feGaussianBlur stdDeviation="1" />
      <feComposite in2="hardAlpha"
        operator="out" />
      <feColorMatrix type="matrix"
        values="0 0 0 0 1 0 0 0 0 1 0 0 0 0 1 0 0 0 1 0" />
      <feBlend mode="normal"
        in2="BackgroundImageFix"
        result="effect1_dropShadow_135_600" />
      <feBlend mode="normal"
        in="SourceGraphic"
        in2="effect1_dropShadow_135_600"
        result="shape" />
    </filter>
    <clipPath id="clip0_135_600">
      <rect width="80"
        height="80"
        fill="white" />
    </clipPath>
  </defs>
</svg>
