<?xml version="1.0" encoding="UTF-8" standalone="no"?>
<svg width="80"
  height="80"
  viewBox="0 0 80 80"
  fill="none"
  xmlns="http://www.w3.org/2000/svg">
  <path d="M51.3335 32.7425C49.2939 36.9978 47.8852 41.1065 46.9314 45.6846C46.0216 50.028 45.6695 54.1659 45.7868 58.5974H29.2204C30.2916 52.0089 32.0083 46.1248 34.6348 40.1672C35.5446 38.0982 36.513 36.1319 37.5696 34.239C38.3767 32.7863 39.213 31.3776 40.1228 29.9836H50.5998C51.4802 30.5853 51.8178 31.7592 51.3335 32.7425Z"
    fill="#A6673A" />
  <path d="M45.7868 58.5975C45.6694 54.1661 46.0216 50.028 46.9314 45.6847C47.8852 41.1064 49.2938 36.9979 51.3335 32.7426C51.8178 31.7595 51.4803 30.5856 50.5998 29.9839H40.1228C39.213 31.3778 38.3768 32.7865 37.5695 34.2392V58.5975H45.7868Z"
    fill="#99522E" />
  <path d="M45.9336 57.5703C43.2334 57.2769 40.4164 57.1301 37.6137 57.1301C23.3949 57.1301 9 60.916 9 68.1354C9 69.3534 9.98295 70.3365 11.2011 70.3365H64.0263C65.2439 70.3365 66.2274 69.3534 66.2274 68.1354C66.2274 62.3392 56.9535 58.7588 45.9336 57.5703Z"
    fill="#F3BF7F" />
  <path d="M45.9336 57.5703C43.2335 57.2769 40.4164 57.1301 37.6138 57.1301C37.599 57.1301 37.5844 57.1304 37.5697 57.1304V70.3365H64.0263C65.2439 70.3365 66.2274 69.3534 66.2274 68.1354C66.2272 62.3392 56.9535 58.7588 45.9336 57.5703Z"
    fill="#FF900A" />
  <path d="M69.3381 26.6969C68.2815 24.217 66.6528 22.0453 64.5692 20.3285C66.2274 19.8149 67.6947 19.2866 68.3844 19.0373C69.4262 18.6557 70.0278 17.5699 69.7783 16.484C69.0007 12.977 66.3593 10.2037 62.7351 9.07384C59.8149 8.16401 56.6895 8.4135 54.0187 9.6608C53.5345 8.3989 52.8156 7.23959 51.8763 6.24177C50.1596 4.40751 47.9292 3.32158 45.6399 3.07223C43.7618 2.83747 41.8392 3.17494 40.0639 4.09937C39.1689 4.56888 38.714 5.59603 38.9486 6.57924C39.2715 7.92926 39.653 9.36726 40.1078 10.7466C32.9032 9.4993 25.1848 12.2727 21.5311 17.9661C21.1789 18.5237 21.091 19.2134 21.2961 19.8442C21.5017 20.4753 21.9859 20.9741 22.6022 21.2089C26.1091 22.5295 29.983 23.2925 34.1649 23.4686C30.834 27.3571 29.22 32.3608 30.071 37.0124C30.1885 37.6287 30.5553 38.1716 31.0983 38.509C31.6411 38.8319 32.3013 38.9052 32.8885 38.7145C37.0997 37.3938 42.0889 34.0189 45.6398 30.8935C45.9332 30.6294 46.2268 30.3799 46.5057 30.1158C47.7087 34.3418 50.0566 39.7565 52.8006 42.5298C53.2113 42.9554 53.7691 43.1901 54.3559 43.1901C54.3707 43.1901 54.3707 43.1901 54.3707 43.1901C54.9576 43.1901 55.5298 42.9406 55.9408 42.5298C58.318 40.0792 59.7707 37.2179 60.2254 34.0777C62.3238 35.7798 64.4954 37.3207 66.5204 38.5092C67.078 38.8466 67.7385 38.9053 68.3399 38.6999C68.9415 38.4944 69.4257 38.0395 69.6752 37.4526C70.9963 34.2245 70.8641 30.3065 69.3381 26.6969Z"
    fill="#88CC2A" />
  <path d="M64.5692 20.3284C66.2274 19.8148 67.6947 19.2865 68.3844 19.0371C69.4262 18.6556 70.0278 17.5698 69.7783 16.4839C69.0007 12.9769 66.3593 10.2036 62.7351 9.07372C59.8149 8.16389 56.6895 8.41338 54.0187 9.66068C53.5345 8.39878 52.8156 7.23946 51.8763 6.24165C50.1596 4.40739 47.9292 3.32146 45.6399 3.07211C43.7618 2.83735 41.8392 3.17482 40.0639 4.09925C39.1689 4.56876 38.714 5.5959 38.9486 6.57912C39.2715 7.92914 39.6531 9.36713 40.1078 10.7465C39.2663 10.6008 38.4176 10.515 37.5693 10.4775V36.626C40.4613 35.0207 43.3496 32.9093 45.6398 30.8935C45.9332 30.6294 46.2268 30.3799 46.5057 30.1158C47.7087 34.3418 50.0566 39.7565 52.8006 42.5298C53.2113 42.9554 53.7691 43.1901 54.3559 43.1901C54.3707 43.1901 54.3706 43.1901 54.3706 43.1901C54.9576 43.1901 55.5298 42.9406 55.9408 42.5298C58.318 40.0792 59.7707 37.218 60.2254 34.0777C62.3238 35.7798 64.4954 37.3207 66.5204 38.5092C67.078 38.8467 67.7385 38.9053 68.3399 38.6999C68.9415 38.4945 69.4257 38.0395 69.6752 37.4526C70.9959 34.2244 70.8636 30.3065 69.3377 26.6968C68.2817 24.217 66.653 22.0452 64.5692 20.3284Z"
    fill="#7FB335" />
  <path d="M80 67.2212H0.0857849V78.3324H80V67.2212Z"
    fill="#01B5F7" />
  <path d="M53.3322 70.0003C53.0783 70.0003 52.8219 69.9417 52.5875 69.8245L49.9997 68.5306L47.4118 69.8245C46.943 70.0589 46.3913 70.0589 45.92 69.8245L43.3322 68.5306L40.7443 69.8245C40.2755 70.0589 39.7238 70.0589 39.2538 69.8245L36.6659 68.5306L34.0781 69.8245C33.6093 70.0589 33.0563 70.0589 32.5876 69.8245L29.9997 68.5306L27.4118 69.8245C26.942 70.0589 26.3901 70.0589 25.9213 69.8245L23.3335 68.5306L20.7456 69.8245C20.2756 70.0589 19.7239 70.0589 19.254 69.8245L16.6661 68.5306L14.0783 69.8245C13.6095 70.0589 13.0578 70.0589 12.5878 69.8245L9.9999 68.5306L7.41203 69.8245C7.01655 70.0223 6.55873 70.054 6.14013 69.9148L1.14049 68.2473C0.266409 67.9568 -0.204695 67.0119 0.0857796 66.1404C0.377505 65.2663 1.32112 64.7952 2.19379 65.0856L6.53951 66.5335L9.25441 65.176C9.72442 64.9416 10.2762 64.9416 10.7462 65.176L13.334 66.4699L15.9219 65.176C16.3907 64.9416 16.9436 64.9416 17.4124 65.176L20.0003 66.4699L22.5881 65.176C23.0581 64.9416 23.6099 64.9416 24.0786 65.176L26.6665 66.4699L29.2544 65.176C29.7244 64.9416 30.2761 64.9416 30.7449 65.176L33.3338 66.4699L35.9217 65.176C36.3905 64.9416 36.9422 64.9416 37.4122 65.176L39.9998 66.4699L42.5876 65.176C43.0562 64.9416 43.6105 64.9416 44.0792 65.176L46.6671 66.4699L49.255 65.176C49.7237 64.9416 50.2755 64.9416 50.7442 65.176L53.3321 66.4699L55.9221 65.176C56.3907 64.9416 56.9425 64.9416 57.4112 65.176L59.9991 66.4699L62.587 65.176C63.0557 64.9416 63.61 64.9416 64.0786 65.176L66.6664 66.4699L69.2543 65.176C69.7231 64.9416 70.2748 64.9416 70.7435 65.176L73.4609 66.5335L77.804 65.0856C78.6781 64.7952 79.623 65.2663 79.9134 66.1404C80.2039 67.0119 79.7328 67.9568 78.8587 68.2473L73.8589 69.9148C73.4414 70.054 72.9825 70.0223 72.5869 69.8245L69.999 68.5306L67.4111 69.8245C66.9424 70.0589 66.3906 70.0589 65.9195 69.8245L63.3317 68.5306L60.7438 69.8245C60.275 70.0589 59.7233 70.0589 59.2546 69.8245L56.6667 68.5306L54.079 69.8245C53.8447 69.9417 53.5885 70.0003 53.3322 70.0003Z"
    fill="#86C7E0" />
</svg>
