<?xml version="1.0" encoding="UTF-8" standalone="no"?>
<svg width="80"
  height="80"
  viewBox="0 0 80 80"
  fill="none"
  xmlns="http://www.w3.org/2000/svg">
<rect width="80"
  height="80"
  fill="white" />
  <g clip-path="url(#clip0_4_7157)">
    <rect x="30"
      y="6"
      width="40"
      height="10"
      fill="#B31942" />
    <rect x="30"
      y="16"
      width="40"
      height="10"
      fill="white" />
    <rect y="36"
      width="70"
      height="10"
      fill="white" />
    <rect x="30"
      y="26"
      width="40"
      height="10"
      fill="#B31942" />
    <rect y="46"
      width="70"
      height="10"
      fill="#B31942" />
    <rect y="6"
      width="30"
      height="30"
      fill="#0A3161" />
    <path d="M8 8L9.12257 11.4549H12.7553L9.81636 13.5902L10.9389 17.0451L8 14.9098L5.06107 17.0451L6.18364 13.5902L3.24472 11.4549H6.87743L8 8Z"
      fill="white" />
    <path d="M15 22L16.1226 25.4549H19.7553L16.8164 27.5902L17.9389 31.0451L15 28.9098L12.0611 31.0451L13.1836 27.5902L10.2447 25.4549H13.8774L15 22Z"
      fill="white" />
    <path d="M22 8L23.1226 11.4549H26.7553L23.8164 13.5902L24.9389 17.0451L22 14.9098L19.0611 17.0451L20.1836 13.5902L17.2447 11.4549H20.8774L22 8Z"
      fill="white" />
    <g filter="url(#filter0_d_4_7157)">
      <path d="M76.9996 57.4493V70.369C77.0098 71.3188 76.8099 72.2595 76.4135 73.1264C76.0172 73.9934 75.4337 74.7658 74.7035 75.3906C73.9732 76.0155 73.1135 76.4779 72.1833 76.746C71.2532 77.0142 70.2748 77.0816 69.3156 76.9439C56.0177 75.2703 43.6662 69.3094 34.2072 60.0006C24.7483 50.6917 18.7195 38.564 17.0709 25.5283C16.9308 24.5913 16.9989 23.6356 17.2706 22.7266C17.5423 21.8177 18.0113 20.9771 18.6454 20.2622C19.2795 19.5473 20.0637 18.9751 20.9445 18.5846C21.8252 18.1942 22.7816 17.9948 23.7483 18.0001H36.734C37.5635 17.9952 38.3655 18.2914 38.9851 18.8318C39.6048 19.3721 39.9982 20.1181 40.0894 20.9259C40.4224 25.2343 41.5597 29.4463 43.4449 33.3524C43.7681 34.0922 43.8032 34.9224 43.5435 35.6859C43.2838 36.4492 42.7472 37.0929 42.0356 37.4946L39.1499 39.1054C38.7339 39.3295 38.3713 39.6376 38.0859 40.0092C37.8004 40.3808 37.5987 40.8076 37.4941 41.2612C37.3894 41.7149 37.3841 42.185 37.4787 42.6408C37.5733 43.0965 37.7655 43.5275 38.0426 43.9051C41.3623 48.6692 45.5616 52.7834 50.4243 56.0358C50.8097 56.3072 51.2495 56.4955 51.7148 56.5882C52.18 56.6809 52.6599 56.6758 53.1229 56.5732C53.5859 56.4706 54.0215 56.273 54.4008 55.9934C54.7801 55.7137 55.0945 55.3584 55.3233 54.9509L56.9674 52.1237C57.402 51.4174 58.0917 50.8968 58.8998 50.6654C59.7078 50.434 60.5751 50.5086 61.3296 50.8744C65.3165 52.7214 69.6157 53.8357 74.0132 54.1619C74.8377 54.2513 75.5992 54.6367 76.1507 55.2438C76.7022 55.8509 77.0046 56.6367 76.9996 57.4493Z"
        fill="#01B5F7" />
      <path d="M76.9995 37.7246C76.9995 32.4933 74.8783 27.4763 71.1027 23.7772C67.3271 20.0781 62.2062 18 56.8667 18"
        stroke="black"
        stroke-width="5"
        stroke-linecap="round"
        stroke-linejoin="round" />
      <path d="M56.8667 31.1504C58.6465 31.1504 60.3535 31.8431 61.612 33.0761C62.8706 34.3091 63.5776 35.9815 63.5776 37.7252"
        stroke="black"
        stroke-width="5"
        stroke-linecap="round"
        stroke-linejoin="round" />
      <path d="M76.9996 58.4359V71.3556C77.0098 72.3054 76.8099 73.2461 76.4135 74.113C76.0172 74.9799 75.4337 75.7524 74.7035 76.3772C73.9732 77.0021 73.1135 77.4645 72.1833 77.7326C71.2532 78.0008 70.2748 78.0682 69.3156 77.9305C56.0177 76.2569 43.6662 70.296 34.2072 60.9871C24.7483 51.6783 18.7195 39.5506 17.0709 26.5149C16.9308 25.5779 16.9989 24.6222 17.2706 23.7133C17.5423 22.8043 18.0113 21.9637 18.6454 21.2488C19.2795 20.5339 20.0637 19.9616 20.9445 19.5712C21.8252 19.1808 22.7816 18.9814 23.7483 18.9867H36.734C37.5635 18.9817 38.3655 19.278 38.9851 19.8184C39.6048 20.3587 39.9982 21.1047 40.0894 21.9125C40.4224 26.2209 41.5597 30.4329 43.4449 34.339C43.7681 35.0788 43.8032 35.909 43.5435 36.6724C43.2838 37.4358 42.7472 38.0794 42.0356 38.4812L39.1499 40.092C38.7339 40.3161 38.3713 40.6242 38.0859 40.9958C37.8004 41.3674 37.5987 41.7941 37.4941 42.2478C37.3894 42.7014 37.3841 43.1716 37.4787 43.6274C37.5733 44.0831 37.7655 44.5141 38.0426 44.8917C41.3623 49.6558 45.5616 53.77 50.4243 57.0223C50.8097 57.2938 51.2495 57.4821 51.7148 57.5748C52.18 57.6674 52.6599 57.6623 53.1229 57.5598C53.5859 57.4572 54.0215 57.2596 54.4008 56.98C54.7801 56.7003 55.0945 56.345 55.3233 55.9375L56.9674 53.1103C57.402 52.4039 58.0917 51.8834 58.8998 51.652C59.7078 51.4206 60.5751 51.4952 61.3296 51.861C65.3165 53.708 69.6157 54.8222 74.0132 55.1485C74.8377 55.2379 75.5992 55.6233 76.1507 56.2304C76.7022 56.8375 77.0046 57.6233 76.9996 58.4359Z"
        stroke="black"
        stroke-width="4"
        stroke-linecap="round"
        stroke-linejoin="round" />
    </g>
  </g>
  <defs>
    <filter id="filter0_d_4_7157"
      x="15"
      y="15.5"
      width="72.4995"
      height="72.5"
      filterUnits="userSpaceOnUse"
      color-interpolation-filters="s-rGB">
      <feFlood flood-opacity="0"
        result="BackgroundImageFix" />
      <feColorMatrix in="SourceAlpha"
        type="matrix"
        values="0 0 0 0 0 0 0 0 0 0 0 0 0 0 0 0 0 0 127 0"
        result="hardAlpha" />
      <feOffset dx="4"
        dy="4" />
      <feGaussianBlur stdDeviation="2" />
      <feComposite in2="hardAlpha"
        operator="out" />
      <feColorMatrix type="matrix"
        values="0 0 0 0 1 0 0 0 0 1 0 0 0 0 1 0 0 0 1 0" />
      <feBlend mode="normal"
        in2="BackgroundImageFix"
        result="effect1_dropShadow_4_7157" />
      <feBlend mode="normal"
        in="SourceGraphic"
        in2="effect1_dropShadow_4_7157"
        result="shape" />
    </filter>
    <clipPath id="clip0_4_7157">
      <rect width="80"
        height="80"
        fill="white" />
    </clipPath>
  </defs>
</svg>
