<?xml version="1.0" encoding="UTF-8" standalone="no"?>
<svg width="80"
  height="80"
  viewBox="0 0 80 80"
  fill="none"
  xmlns="http://www.w3.org/2000/svg">
<rect width="80"
  height="80"
  fill="white" />
  <path d="M29.6667 30.1667L17.3333 42.3333L10.3333 35.5L6.66667 39.1667L17.3333 49.8333L33.3333 33.8333L29.6667 30.1667ZM29.6667 8.5L17.3333 20.6667L10.3333 13.8333L6.66667 17.5L17.3333 28.1667L33.3333 12.1667L29.6667 8.5ZM29.6667 51.8333L17.3333 64L10.3333 57.1667L6.66667 60.8333L17.3333 71.5L33.3333 55.5L29.6667 51.8333Z"
    fill="#01B5F7" />
  <path d="M40 36.6667H73.3333V43.3333H40V36.6667ZM40 15H73.3333V21.6667H40V15ZM40 58.3333H73.3333V65H40V58.3333Z"
    fill="#FF900A" />
</svg>
