<?xml version="1.0" encoding="UTF-8" standalone="no"?>
<svg width="80"
  height="80"
  viewBox="0 0 80 80"
  fill="none"
  xmlns="http://www.w3.org/2000/svg">
<rect width="80"
  height="80"
  fill="white" />
  <path d="M10.0776 15.201L1.48747 40.2485L11.7258 43.7598L20.316 18.7123L10.0776 15.201Z"
    fill="#01B5F7" />
  <path d="M27.7536 17.3217L26.7577 17.8115C25.5169 18.4156 24.0638 18.4972 22.7741 18.0401L21.1088 17.4523C21.0108 17.387 20.9129 17.338 20.8149 17.3054L10.5621 13.7952C9.79474 13.534 8.94578 13.9422 8.68456 14.7095L0.0806515 39.7702C-0.0499581 40.1457 -0.0173057 40.5539 0.145956 40.8967C0.309218 41.2396 0.619416 41.5171 0.994918 41.6477L11.2314 45.1579C11.3947 45.2068 11.558 45.2395 11.7049 45.2395C12.3253 45.2395 12.8967 44.8477 13.109 44.2436L21.2231 20.6359L21.7782 20.8318C23.8189 21.5502 26.1046 21.4196 28.0638 20.4727L29.0597 19.9829C30.2841 19.3788 31.7208 19.2972 33.0106 19.738L51.8347 26.2195C51.6388 27.0031 51.2469 27.9337 50.5286 28.4398C49.7286 28.9949 48.5368 28.9949 46.9695 28.4562L38.5778 25.5828C38.186 25.4521 37.7615 25.4848 37.4023 25.6807C37.0432 25.8766 36.7819 26.2195 36.6677 26.6113C36.6513 26.6603 35.4922 31.0031 31.7861 32.9948C29.4515 34.252 26.5454 34.3009 23.1332 33.1418C22.3659 32.8806 21.5169 33.2887 21.2557 34.056C20.9945 34.8234 21.4027 35.6723 22.17 35.9336C24.1291 36.6029 25.974 36.9458 27.6882 36.9458C29.68 36.9458 31.5086 36.505 33.1739 35.607C36.4881 33.8275 38.2023 30.7092 38.986 28.848L45.9899 31.2479C48.4878 32.1132 50.5776 31.9826 52.1939 30.8561C54.7897 29.0602 54.9203 25.4195 54.9367 25.2562C54.953 24.6032 54.5448 24.0318 53.9408 23.8195L33.9575 16.9299C31.9494 16.2442 29.68 16.3911 27.7536 17.3217ZM10.807 41.8763L3.36222 39.3294L10.9866 17.0768L18.4313 19.6237L10.807 41.8763Z"
    fill="black" />
  <path d="M57.1404 20.1256L68.778 43.9092L78.4995 39.1523L66.8619 15.3688L57.1404 20.1256Z"
    fill="#FF900A" />
  <path d="M66.9691 43.5579L63.4589 46.7905C60.2753 49.7129 56.6836 52.1781 52.7979 54.072L34.1698 63.182C33.3534 63.5902 32.3575 63.2473 31.9494 62.4147C31.5412 61.5984 31.8841 60.6025 32.7167 60.1943L32.9453 60.08L43.1328 55.1005C43.8675 54.7414 44.1777 53.8597 43.8185 53.1251C43.4594 52.3904 42.5777 52.0802 41.8431 52.4394L31.6555 57.4189L26.5291 59.9331C25.7128 60.3412 24.7169 59.9984 24.3087 59.1658C24.1128 58.7739 24.0802 58.3168 24.2271 57.9086C24.374 57.4842 24.6679 57.1576 25.0597 56.9617L28.929 55.0679L39.9982 49.6476C40.7329 49.2884 41.0431 48.4068 40.6839 47.6721C40.3247 46.9374 39.4431 46.6272 38.7084 46.9864L27.6229 52.423L27.1985 52.6353L21.9088 55.2311C21.5169 55.4271 21.0598 55.4597 20.6517 55.3128C20.2272 55.1658 19.9007 54.872 19.7047 54.4801C19.2966 53.6638 19.6394 52.6679 20.4721 52.2598L22.3006 51.3618L26.0393 49.5333L27.0842 49.0272L35.6718 44.815C36.4064 44.4559 36.7166 43.5742 36.3575 42.8396C35.9983 42.1049 35.1167 41.7947 34.382 42.1539L25.0761 46.7089L21.0108 48.7007C20.1945 49.0925 19.1986 48.766 18.7905 47.9333C18.5946 47.5415 18.5619 47.0844 18.7088 46.6762C18.8558 46.2517 19.1496 45.9252 19.5415 45.7293L26.6434 42.2518C27.3781 41.8926 27.6882 41.011 27.3291 40.2764C26.9699 39.5417 26.0883 39.2315 25.3536 39.5906L18.2517 43.0681C17.1415 43.6069 16.3089 44.5538 15.9171 45.713C15.5252 46.8721 15.5905 48.1292 16.1293 49.2394C16.4722 49.9251 16.9619 50.4965 17.5497 50.921C16.5211 52.2761 16.2599 54.1373 17.0599 55.7699C17.5987 56.8801 18.5456 57.7127 19.7047 58.1046C20.1945 58.2678 20.6843 58.3495 21.1741 58.3495C21.1578 59.0841 21.3047 59.8188 21.6476 60.4882C22.4475 62.1208 24.0965 63.0677 25.7944 63.0677C26.4801 63.0677 27.1658 62.9208 27.8189 62.5943L28.8637 62.0881C28.9127 62.6432 29.0597 63.182 29.3045 63.7044C30.1045 65.3371 31.7535 66.284 33.4514 66.284C34.1371 66.284 34.8228 66.137 35.4758 65.8105L54.104 56.7005C58.2509 54.6761 62.0712 52.0639 65.4671 48.9456L69.6302 45.1089L79.1647 40.4396C79.8994 40.0804 80.2096 39.1988 79.8504 38.4641L68.1935 14.7095C68.014 14.3503 67.7201 14.0891 67.3446 13.9585C66.9691 13.8279 66.5609 13.8606 66.2181 14.0238L56.4877 18.7747C55.753 19.1339 55.4428 20.0155 55.802 20.7502L66.9691 43.5579ZM66.1854 17.338L76.5199 38.4805L69.4507 41.9416L59.1162 20.7992L66.1854 17.338Z"
    fill="black" />
</svg>
