<?xml version="1.0" encoding="UTF-8" standalone="no"?>
<svg width="80"
  height="80"
  viewBox="0 0 80 80"
  fill="none"
  xmlns="http://www.w3.org/2000/svg">
  <g clip-path="url(#clip0_13_7234)">
    <path d="M59.3333 6H12.6667C8.98477 6 6 8.98477 6 12.6667V46C6 49.6819 8.98477 52.6667 12.6667 52.6667H59.3333C63.0152 52.6667 66 49.6819 66 46V12.6667C66 8.98477 63.0152 6 59.3333 6Z"
      fill="white"
      stroke="#A2A2A2"
      stroke-width="6"
      stroke-linecap="round" />
    <path d="M9.33337 12.6669L30 28.1667C33.5557 30.8334 38.4444 30.8334 42 28.1667L62.6667 12.6667"
      fill="white" />
    <path d="M9.33337 12.6669L30 28.1667C33.5557 30.8334 38.4444 30.8334 42 28.1667L62.6667 12.6667"
      stroke="#A2A2A2"
      stroke-width="6"
      stroke-linecap="round"
      stroke-linejoin="round" />
    <g filter="url(#filter0_d_13_7234)">
      <path d="M75.9998 64.2996V72.9126C76.0065 73.5459 75.8733 74.173 75.609 74.751C75.3448 75.3289 74.9558 75.8439 74.469 76.2604C73.9822 76.677 73.409 76.9853 72.7889 77.164C72.1688 77.3428 71.5166 77.3878 70.8771 77.2959C62.0118 76.1802 53.7775 72.2063 47.4715 66.0004C41.1655 59.7945 37.1463 51.7093 36.0473 43.0189C35.9538 42.3942 35.9992 41.757 36.1804 41.1511C36.3616 40.5452 36.6742 39.9847 37.0969 39.5081C37.5197 39.0315 38.0425 38.65 38.6296 38.3898C39.2168 38.1295 39.8544 37.9965 40.4989 38.0001H49.156C49.709 37.9968 50.2437 38.1943 50.6567 38.5545C51.0699 38.9147 51.3322 39.4121 51.393 39.9506C51.6149 42.8229 52.3732 45.6309 53.6299 48.235C53.8454 48.7281 53.8688 49.2816 53.6957 49.7906C53.5225 50.2995 53.1648 50.7286 52.6904 50.9964L50.7666 52.0703C50.4893 52.2197 50.2475 52.4251 50.0572 52.6728C49.867 52.9206 49.7325 53.205 49.6627 53.5075C49.5929 53.8099 49.5894 54.1234 49.6525 54.4272C49.7156 54.731 49.8437 55.0183 50.0284 55.2701C52.2415 58.4461 55.0411 61.1889 58.2829 63.3572C58.5398 63.5382 58.833 63.6637 59.1432 63.7255C59.4533 63.7872 59.7732 63.7838 60.0819 63.7155C60.3906 63.6471 60.681 63.5154 60.9339 63.3289C61.1867 63.1425 61.3964 62.9056 61.5489 62.634L62.645 60.7492C62.9347 60.2782 63.3945 59.9312 63.9332 59.7769C64.4719 59.6227 65.05 59.6724 65.553 59.9163C68.211 61.1476 71.0771 61.8904 74.0088 62.108C74.5585 62.1675 75.0661 62.4245 75.4338 62.8292C75.8015 63.2339 76.0031 63.7578 75.9998 64.2996Z"
        fill="#01B5F7" />
      <path d="M75.9998 64.9573V73.5704C76.0065 74.2036 75.8733 74.8307 75.609 75.4087C75.3448 75.9866 74.9558 76.5016 74.469 76.9181C73.9822 77.3347 73.409 77.643 72.7889 77.8217C72.1688 78.0005 71.5166 78.0455 70.8771 77.9536C62.0118 76.8379 53.7775 72.864 47.4715 66.6581C41.1655 60.4522 37.1463 52.367 36.0473 43.6766C35.9538 43.0519 35.9992 42.4148 36.1804 41.8088C36.3616 41.2029 36.6742 40.6424 37.0969 40.1658C37.5197 39.6893 38.0425 39.3078 38.6296 39.0475C39.2168 38.7872 39.8544 38.6543 40.4989 38.6578H49.156C49.709 38.6545 50.2437 38.852 50.6567 39.2122C51.0699 39.5724 51.3322 40.0698 51.393 40.6083C51.6149 43.4806 52.3732 46.2886 53.6299 48.8927C53.8454 49.3859 53.8688 49.9393 53.6957 50.4483C53.5225 50.9572 53.1648 51.3863 52.6904 51.6541L50.7666 52.728C50.4893 52.8774 50.2475 53.0828 50.0572 53.3305C49.867 53.5783 49.7325 53.8628 49.6627 54.1652C49.5929 54.4676 49.5894 54.7811 49.6525 55.0849C49.7156 55.3887 49.8437 55.676 50.0284 55.9278C52.2415 59.1039 55.0411 61.8467 58.2829 64.0149C58.5398 64.1959 58.833 64.3214 59.1432 64.3832C59.4533 64.445 59.7732 64.4416 60.0819 64.3732C60.3906 64.3048 60.681 64.1731 60.9339 63.9866C61.1867 63.8002 61.3964 63.5633 61.5489 63.2917L62.645 61.4069C62.9347 60.936 63.3945 60.5889 63.9332 60.4347C64.4719 60.2804 65.05 60.3301 65.553 60.574C68.211 61.8053 71.0771 62.5482 74.0088 62.7657C74.5585 62.8252 75.0661 63.0822 75.4338 63.4869C75.8015 63.8917 76.0031 64.4155 75.9998 64.9573Z"
        stroke="black"
        stroke-width="3"
        stroke-linecap="round"
        stroke-linejoin="round" />
    </g>
  </g>
  <defs>
    <filter id="filter0_d_13_7234"
      x="32.5"
      y="35.1577"
      width="51"
      height="50.3423"
      filterUnits="userSpaceOnUse"
      color-interpolation-filters="s-rGB">
      <feFlood flood-opacity="0"
        result="BackgroundImageFix" />
      <feColorMatrix in="SourceAlpha"
        type="matrix"
        values="0 0 0 0 0 0 0 0 0 0 0 0 0 0 0 0 0 0 127 0"
        result="hardAlpha" />
      <feOffset dx="2"
        dy="2" />
      <feGaussianBlur stdDeviation="2" />
      <feComposite in2="hardAlpha"
        operator="out" />
      <feColorMatrix type="matrix"
        values="0 0 0 0 1 0 0 0 0 1 0 0 0 0 1 0 0 0 1 0" />
      <feBlend mode="normal"
        in2="BackgroundImageFix"
        result="effect1_dropShadow_13_7234" />
      <feBlend mode="normal"
        in="SourceGraphic"
        in2="effect1_dropShadow_13_7234"
        result="shape" />
    </filter>
    <clipPath id="clip0_13_7234">
      <rect width="80"
        height="80"
        fill="white" />
    </clipPath>
  </defs>
</svg>
