<?xml version="1.0" encoding="UTF-8" standalone="no"?>
<svg width="80"
  height="80"
  viewBox="0 0 80 80"
  fill="none"
  xmlns="http://www.w3.org/2000/svg">
  <path d="M44.4986 30.5472L48.1093 31.2252L53.6895 37.971L49.2178 37.187L44.4986 30.5472ZM37.7159 41.7744L46.7116 43.63L57.7604 57.4902L47.702 56.5311L37.7159 41.7744ZM13.8245 36.7565L24.4878 39.3494L33.5992 55.2483L20.9213 54.1013L13.8245 36.7565Z"
    fill="#01B5F7" />
  <path d="M37.7159 41.7744L46.7116 43.6299L57.7605 57.4902L47.702 56.5311L37.7159 41.7744Z"
    fill="#FF900A" />
  <path d="M15.4832 36.7565L24.0845 54.9013L20.6409 54.2362L13.8245 36.4528L15.4832 36.7565Z"
    fill="#86C7E0" />
  <path d="M17.3162 22.3218L26.136 24.7694L30.3877 33.2398L19.9316 30.9457L17.3162 22.3218Z"
    fill="#FF900A" />
  <path d="M18.7508 23.2753L23.2057 30.9689L20.6747 29.9335L17.3162 23.2753H18.7508Z"
    fill="#F3BF7F" />
  <path d="M76.6363 62.6713C76.5827 62.6713 76.5292 62.6689 76.4756 62.664L19.7397 57.3681C19.4392 57.34 19.1517 57.2318 18.9073 57.0548C18.6629 56.8777 18.4704 56.6384 18.35 56.3616L1.8173 18.3883C1.6904 18.0967 1.64852 17.7751 1.69648 17.4607C1.74445 17.1464 1.88031 16.8519 2.08839 16.6115C2.29647 16.371 2.5683 16.1942 2.87252 16.1015C3.17674 16.0089 3.50096 16.0041 3.80778 16.0877L49.2651 28.4788C49.5773 28.564 49.8584 28.7372 50.0748 28.9777L77.8894 59.855C78.1077 60.0973 78.2512 60.3977 78.3024 60.7199C78.3535 61.0421 78.3102 61.3721 78.1776 61.6702C78.0449 61.9682 77.8288 62.2214 77.5552 62.399C77.2817 62.5767 76.9625 62.6713 76.6363 62.6713ZM21.0458 54.1013L72.4906 58.9032L47.8996 31.6035L6.31476 20.2671L21.0458 54.1013Z"
    fill="#203529" />
  <path d="M47.2715 43.7777C47.2175 43.7778 47.1637 43.7727 47.1108 43.7625L34.7109 41.3527C34.5998 41.3311 34.4942 41.2875 34.4004 41.2243C34.3065 41.161 34.2264 41.0796 34.1646 40.9848L29.6865 34.096C29.5939 33.9553 29.5457 33.7901 29.5479 33.6217C29.5501 33.4532 29.6027 33.2893 29.6989 33.1511C29.795 33.0128 29.9304 32.9065 30.0875 32.8459C30.2447 32.7852 30.4164 32.773 30.5805 32.8108L42.7234 35.57C42.9232 35.6153 43.0996 35.7318 43.2198 35.8977L47.959 42.4427C48.0502 42.5686 48.1049 42.7172 48.1169 42.8722C48.1289 43.0271 48.0979 43.1824 48.0273 43.3208C47.9567 43.4593 47.8492 43.5755 47.7166 43.6567C47.5841 43.7379 47.4317 43.7809 47.2763 43.7809L47.2715 43.7777ZM35.3832 39.7614L45.3364 41.6965L42.039 37.1396L32.2328 34.9186L35.3832 39.7614ZM20.9221 32.0694C20.7726 32.0695 20.6258 32.03 20.4967 31.9548C20.3675 31.8795 20.2607 31.7713 20.1871 31.6413L15.0205 22.513C14.9104 22.3183 14.8821 22.0878 14.9419 21.8722C15.0017 21.6566 15.1447 21.4737 15.3394 21.3635C15.5341 21.2534 15.7646 21.2251 15.9802 21.2849C16.1958 21.3447 16.3787 21.4877 16.4889 21.6824L21.6554 30.8107C21.728 30.9389 21.7657 31.084 21.7648 31.2313C21.7638 31.3787 21.7243 31.5232 21.6501 31.6506C21.5759 31.7779 21.4697 31.8836 21.3419 31.9571C21.2142 32.0305 21.0694 32.0693 20.9221 32.0694Z"
    fill="#203529" />
  <path d="M31.3131 34.0832C31.1723 34.0834 31.0337 34.0484 30.91 33.9814C30.7862 33.9143 30.6812 33.8173 30.6046 33.6992L25.3834 25.657C25.2782 25.47 25.2482 25.2501 25.2995 25.0418C25.3507 24.8335 25.4794 24.6526 25.6593 24.5359C25.8392 24.4191 26.0568 24.3752 26.2679 24.4133C26.479 24.4513 26.6677 24.5682 26.7955 24.7404L32.0167 32.7827C32.0994 32.91 32.1462 33.0572 32.1522 33.2088C32.1582 33.3605 32.1232 33.511 32.0508 33.6444C31.9784 33.7778 31.8714 33.8892 31.741 33.9668C31.6106 34.0445 31.4616 34.0855 31.3099 34.0856L31.3131 34.0832ZM40.9 36.2022C40.7678 36.2023 40.6374 36.1714 40.5193 36.1118C40.4012 36.0522 40.2989 35.9657 40.2205 35.8592L34.6306 28.2812C34.4977 28.1012 34.4418 27.8758 34.4752 27.6546C34.5086 27.4333 34.6285 27.2344 34.8085 27.1016C34.9885 26.9688 35.2139 26.9129 35.4351 26.9463C35.6563 26.9796 35.8552 27.0995 35.9881 27.2795L41.578 34.8615C41.6705 34.9871 41.7264 35.1358 41.7395 35.2912C41.7526 35.4466 41.7223 35.6026 41.6521 35.7418C41.5818 35.8811 41.4744 35.9981 41.3416 36.08C41.2088 36.1618 41.056 36.2052 40.9 36.2054V36.2022ZM49.7439 38.6754C49.6185 38.6756 49.4947 38.6478 49.3814 38.594C49.2682 38.5402 49.1683 38.4618 49.0893 38.3645L42.6567 30.4661C42.5867 30.3802 42.5343 30.2814 42.5024 30.1753C42.4706 30.0691 42.4599 29.9578 42.4711 29.8475C42.4823 29.7373 42.5151 29.6303 42.5676 29.5327C42.6201 29.4352 42.6914 29.3489 42.7772 29.2789C42.8631 29.2088 42.9619 29.1564 43.0681 29.1245C43.1742 29.0927 43.2856 29.082 43.3958 29.0932C43.506 29.1044 43.613 29.1372 43.7106 29.1897C43.8081 29.2423 43.8944 29.3135 43.9645 29.3993L50.397 37.2978C50.4977 37.4215 50.5612 37.5712 50.5803 37.7295C50.5994 37.8878 50.5732 38.0483 50.5047 38.1924C50.4363 38.3364 50.3284 38.4581 50.1936 38.5433C50.0588 38.6285 49.9026 38.6738 49.7431 38.6738L49.7439 38.6754Z"
    fill="#203529" />
  <path d="M56.4005 40.4281C56.3353 40.4281 56.2703 40.4206 56.2069 40.4056L8.84501 29.2909C8.63405 29.2339 8.45347 29.0972 8.3413 28.9096C8.22914 28.722 8.19416 28.4983 8.24372 28.2854C8.29329 28.0726 8.42354 27.8873 8.60702 27.7686C8.79051 27.6499 9.01291 27.607 9.22737 27.649L56.5925 38.7638C56.7937 38.8112 56.9704 38.9308 57.0892 39.1C57.208 39.2691 57.2606 39.476 57.2369 39.6814C57.2132 39.8867 57.1149 40.0762 56.9607 40.2138C56.8066 40.3515 56.6072 40.4278 56.4005 40.4281ZM61.5671 46.9667C61.5096 46.9666 61.4523 46.9607 61.396 46.949L12.0532 36.7894C11.8341 36.7442 11.6419 36.6138 11.5189 36.427C11.3959 36.2401 11.3522 36.012 11.3974 35.7929C11.4425 35.5738 11.5729 35.3816 11.7598 35.2586C11.9466 35.1356 12.1747 35.0919 12.3938 35.137L61.7366 45.2967C61.9416 45.3383 62.1239 45.4547 62.2479 45.6232C62.372 45.7917 62.429 46.0003 62.4078 46.2084C62.3867 46.4166 62.289 46.6095 62.1336 46.7496C61.9782 46.8897 61.7763 46.9671 61.5671 46.9667Z"
    fill="#203529" />
  <path d="M34.5301 56.6974C34.3809 56.6976 34.2344 56.6583 34.1054 56.5834C33.9764 56.5084 33.8696 56.4006 33.7959 56.2709L23.9383 38.9421C23.8808 38.8457 23.8431 38.7388 23.8274 38.6277C23.8117 38.5165 23.8184 38.4034 23.847 38.2948C23.8756 38.1863 23.9256 38.0846 23.9941 37.9956C24.0625 37.9066 24.148 37.8322 24.2456 37.7767C24.3432 37.7212 24.4508 37.6858 24.5623 37.6724C24.6737 37.6591 24.7867 37.6681 24.8946 37.699C25.0025 37.7299 25.1032 37.782 25.1907 37.8523C25.2782 37.9226 25.3508 38.0096 25.4043 38.1083L35.2603 55.4371C35.3331 55.5651 35.3711 55.71 35.3705 55.8574C35.3699 56.0047 35.3308 56.1493 35.2569 56.2768C35.183 56.4043 35.0771 56.5102 34.9496 56.584C34.8221 56.6577 34.6775 56.6969 34.5301 56.6974ZM47.7036 58.3336C47.565 58.3338 47.4285 58.2999 47.3062 58.2347C47.1839 58.1696 47.0795 58.0752 47.0024 57.9601L36.0852 41.6965C35.9606 41.5107 35.9149 41.283 35.9581 41.0636C36.0014 40.8441 36.13 40.6508 36.3158 40.5261C36.5015 40.4015 36.7292 40.3558 36.9487 40.399C37.1682 40.4422 37.3615 40.5709 37.4861 40.7567L48.4025 57.0195C48.4878 57.1463 48.537 57.294 48.5449 57.4466C48.5528 57.5993 48.519 57.7512 48.4473 57.8862C48.3755 58.0212 48.2684 58.1341 48.1374 58.2129C48.0064 58.2917 47.8565 58.3334 47.7036 58.3336ZM58.7252 59.1947C58.5967 59.1949 58.4699 59.1657 58.3545 59.1093C58.2391 59.0529 58.1381 58.9708 58.0593 58.8694L46.6056 44.1472C46.5342 44.0602 46.481 43.9597 46.4491 43.8518C46.4172 43.7438 46.4072 43.6306 46.4198 43.5187C46.4323 43.4069 46.4671 43.2987 46.5221 43.2005C46.5771 43.1023 46.6512 43.0161 46.7401 42.9469C46.8289 42.8778 46.9307 42.8272 47.0394 42.798C47.1481 42.7689 47.2616 42.7618 47.3731 42.7771C47.4846 42.7925 47.5919 42.83 47.6887 42.8875C47.7854 42.945 47.8697 43.0213 47.9366 43.1118L59.3903 57.8348C59.4873 57.9594 59.5473 58.1087 59.5636 58.2657C59.58 58.4228 59.5519 58.5812 59.4826 58.7231C59.4133 58.865 59.3055 58.9845 59.1716 59.0682C59.0377 59.1519 58.883 59.1963 58.7252 59.1963V59.1947ZM68.0261 60.3137C67.9024 60.3138 67.7802 60.2867 67.6681 60.2342C67.5561 60.1817 67.457 60.1052 67.3779 60.01L55.3523 45.5811C55.209 45.4092 55.1399 45.1875 55.16 44.9648C55.1802 44.742 55.2881 44.5363 55.4599 44.393C55.6317 44.2498 55.8534 44.1806 56.0762 44.2008C56.299 44.221 56.5047 44.3288 56.6479 44.5007L68.6727 58.9305C68.7753 59.0535 68.8406 59.2032 68.8611 59.3621C68.8817 59.5209 68.8566 59.6823 68.7887 59.8274C68.7209 59.9725 68.6132 60.0953 68.4781 60.1814C68.3431 60.2675 68.1863 60.3134 68.0261 60.3137Z"
    fill="#203529" />
  <path d="M66.9819 80H20.9213C20.6096 80 20.3041 79.9136 20.0385 79.7505C19.773 79.5874 19.5578 79.354 19.4168 79.076C19.2759 78.798 19.2147 78.4865 19.2401 78.1758C19.2655 77.8652 19.3764 77.5677 19.5606 77.3163L34.2136 57.3151C34.4795 56.9582 34.8757 56.7208 35.3158 56.6547C35.7559 56.5886 36.2043 56.6991 36.5633 56.9621C36.9223 57.2251 37.1628 57.6193 37.2324 58.0589C37.3021 58.4984 37.1952 58.9477 36.9351 59.3088L24.2484 76.6263H63.0459L46.7397 59.4703C46.4314 59.146 46.2646 58.7126 46.2759 58.2653C46.2872 57.8181 46.4757 57.3936 46.7999 57.0854C47.1242 56.7771 47.5576 56.6103 48.0049 56.6216C48.4521 56.6329 48.8766 56.8214 49.1848 57.1456L68.1996 77.1468C68.4281 77.3855 68.5814 77.686 68.6406 78.0111C68.6997 78.3362 68.6621 78.6714 68.5324 78.9753C68.4027 79.2792 68.1866 79.5383 67.911 79.7205C67.6354 79.9026 67.3123 79.9998 66.9819 80Z"
    fill="#203529" />
  <path d="M32.7179 73.7675C32.5614 73.7674 32.4081 73.7237 32.275 73.6414C32.1419 73.5591 32.0343 73.4414 31.9643 73.3015C31.8942 73.1615 31.8645 73.0048 31.8785 72.8489C31.8924 72.6931 31.9495 72.5441 32.0432 72.4188L39.3248 62.6889C39.3896 62.5964 39.4723 62.5179 39.5681 62.458C39.6638 62.3981 39.7706 62.358 39.8822 62.3401C39.9937 62.3223 40.1077 62.327 40.2173 62.354C40.327 62.3811 40.4301 62.4299 40.5206 62.4975C40.611 62.5651 40.687 62.6503 40.7439 62.7478C40.8008 62.8454 40.8376 62.9533 40.852 63.0654C40.8664 63.1774 40.8582 63.2912 40.8278 63.4C40.7974 63.5087 40.7454 63.6103 40.675 63.6986L33.3935 73.4293C33.315 73.5344 33.2131 73.6197 33.0958 73.6785C32.9785 73.7372 32.8491 73.7677 32.7179 73.7675ZM13.765 66.3454C13.6384 66.3452 13.5122 66.332 13.3883 66.306C12.3127 66.0827 11.7609 64.9774 11.4396 64.1653C10.0435 60.6414 10.2025 56.2556 11.899 51.481C13.1626 47.9242 14.8116 45.4204 14.8815 45.316C15.0052 45.1296 15.1979 44.9999 15.4171 44.9556C15.6364 44.9112 15.8643 44.9558 16.0507 45.0794C16.2371 45.2031 16.3667 45.3958 16.4111 45.615C16.4555 45.8343 16.4109 46.0622 16.2872 46.2486C15.1406 48.0849 14.1979 50.0409 13.4758 52.0819C12.3978 55.1286 11.442 59.5899 13.0083 63.5436C13.418 64.5774 13.7192 64.6513 13.7313 64.6537C14.0759 64.726 15.0342 63.7701 15.6069 63.199C16.8118 61.9941 18.3131 60.4992 20.1525 60.6141C21.31 60.6864 22.3711 61.3603 23.3961 62.6753C23.5327 62.8496 23.9463 63.3813 25.344 63.0689C26.5553 62.7982 28.1402 61.9443 29.5836 60.7788C31.1162 59.5434 31.8151 58.5192 31.8954 58.1642C31.9182 58.0545 31.9626 57.9505 32.026 57.8582C32.0895 57.7659 32.1706 57.6872 32.2648 57.6266C32.359 57.566 32.4643 57.5247 32.5746 57.5053C32.6849 57.4858 32.7979 57.4885 32.9072 57.5132C33.0164 57.5379 33.1196 57.5841 33.2108 57.6491C33.302 57.7141 33.3793 57.7966 33.4383 57.8918C33.4972 57.9871 33.5366 58.0931 33.5542 58.2037C33.5717 58.3143 33.5671 58.4273 33.5405 58.5361C33.228 59.9233 31.2432 61.6102 30.6423 62.0921C28.9828 63.4295 27.1883 64.3854 25.7127 64.7148C23.6965 65.1654 22.6169 64.4184 22.0667 63.7123C21.3663 62.8134 20.6867 62.3379 20.0481 62.2977C18.9677 62.2303 17.8158 63.3797 16.7981 64.3935C15.7948 65.3951 14.8414 66.3446 13.765 66.3454ZM41.5835 18.0734C41.415 18.0733 41.2504 18.0228 41.1109 17.9283C40.9714 17.8338 40.8634 17.6997 40.8008 17.5432C40.7383 17.3868 40.724 17.2152 40.7598 17.0505C40.7957 16.8859 40.88 16.7358 41.002 16.6195L53.5995 4.62118C53.7615 4.46694 53.9782 4.38338 54.2018 4.38887C54.4254 4.39437 54.6377 4.48848 54.792 4.6505C54.9462 4.81251 55.0298 5.02916 55.0243 5.25279C55.0188 5.47641 54.9247 5.6887 54.7626 5.84294L42.1651 17.8396C42.0086 17.9896 41.8003 18.0733 41.5835 18.0734ZM51.9609 18.0734C51.7924 18.0733 51.6278 18.0228 51.4883 17.9283C51.3487 17.8338 51.2407 17.6997 51.1782 17.5432C51.1156 17.3868 51.1013 17.2152 51.1372 17.0505C51.173 16.8859 51.2573 16.7358 51.3793 16.6195L68.5884 0.23296C68.7529 0.0953056 68.9637 0.0255266 69.1779 0.0378264C69.3921 0.0501262 69.5935 0.14358 69.7412 0.299167C69.8889 0.454753 69.9718 0.660778 69.973 0.875307C69.9741 1.08984 69.8935 1.29674 69.7475 1.45392L52.5416 17.8404C52.3852 17.9899 52.1772 18.0733 51.9609 18.0734ZM61.0747 33.4872C60.9062 33.4871 60.7416 33.4365 60.6021 33.342C60.4626 33.2475 60.3545 33.1134 60.292 32.957C60.2294 32.8005 60.2151 32.6289 60.251 32.4643C60.2868 32.2997 60.3711 32.1495 60.4931 32.0333L74.8819 18.3304C75.0439 18.1762 75.2606 18.0926 75.4842 18.0981C75.7078 18.1036 75.9201 18.1977 76.0744 18.3598C76.2286 18.5218 76.3122 18.7384 76.3067 18.962C76.3012 19.1857 76.2071 19.398 76.045 19.5522L61.6562 33.255C61.4995 33.4044 61.2912 33.4875 61.0747 33.4872Z"
    fill="#203529" />
</svg>
